<?xml version="1.0" standalone="no"?>
<!DOCTYPE svg PUBLIC "-//W3C//DTD SVG 1.1//EN" "http://www.w3.org/Graphics/SVG/1.1/DTD/svg11.dtd" >
<svg xmlns="http://www.w3.org/2000/svg" xmlns:xlink="http://www.w3.org/1999/xlink" version="1.1">
<metadata>
Created by FontForge 20191125 at Mon Apr 22 18:55:53 2019
 By convertio
Copyright (c) 2019 by Red Hat. All rights reserved.
</metadata>
<defs>
<font id="BecauseWeConnect" horiz-adv-x="500" >
  <font-face 
    font-family="Because We Connect"
    font-weight="400"
    font-stretch="normal"
    units-per-em="1000"
    panose-1="0 0 5 0 0 0 0 0 0 0"
    ascent="800"
    descent="-200"
    x-height="650"
    cap-height="793"
    bbox="3 -199 845.857 922.1"
    underline-thickness="50"
    underline-position="-100"
    unicode-range="U+0020-2022"
  />
<missing-glyph 
d="M50 0v533h400v-533h-400zM100 50h300v433h-300v-433z" />
    <glyph glyph-name=".notdef" 
d="M50 0v533h400v-533h-400zM100 50h300v433h-300v-433z" />
    <glyph glyph-name=".null" horiz-adv-x="0" 
 />
    <glyph glyph-name="nonmarkingreturn" horiz-adv-x="333" 
 />
    <glyph glyph-name="space" unicode=" " horiz-adv-x="297" 
 />
    <glyph glyph-name="exclam" unicode="!" horiz-adv-x="175" 
d="M38 54q-14 0 -18.5 3.5t-4.5 15.5q0 35 10 212q4 68 11.5 200.5t10.5 195.5q1 18 4 58.5t4 63.5h93v-13q0 -8 -1 -12q-4 -48 -15.5 -171t-16.5 -190q0 -5 -15 -346q0 -2 -1 -7t-1 -9q-13 0 -32 -0.5t-28 -0.5zM66 -102q-25 0 -40.5 18t-15.5 40q0 39 32 39
q28 0 45.5 -12.5t17.5 -34.5v-7q0 -12 -10 -27.5t-29 -15.5z" />
    <glyph glyph-name="quotedbl" unicode="&#x22;" horiz-adv-x="260" 
d="M171 562q-11 0 -11 10q3 87 3 89q0 19 -1 58.5t-1 59.5q0 18 37 26q2 0 4.5 0.5t3.5 0.5q6 0 10 -7.5t4.5 -20.5t0.5 -25t-0.5 -28t-0.5 -22l6 -117q0 -17 -11 -20.5t-44 -3.5zM49 568q-15 0 -15 8l-1 7q0 19 2 75.5t2 88.5q0 4 -2 13t-2 13q0 6 1.5 9t4 3.5t8 2.5t9.5 4
q3 0 14.5 2.5t16.5 2.5q3 0 5 -1t3.5 -1.5t2.5 -3t2 -3.5t1 -4v-4.5v-5v-4.5q0 -117 -6 -179q-1 -17 -17 -19l-11 -2q-12 -2 -18 -2z" />
    <glyph glyph-name="numbersign" unicode="#" horiz-adv-x="755" 
d="M489 21q-5 0 -9 4.5t-5.5 13.5t-2.5 17.5t-1.5 20.5t-1.5 18q-1 10 -5 46.5t-7.5 60t-8.5 45.5q-21 -1 -65.5 -4.5t-67.5 -5.5q0 -76 13 -167q0 -2 0.5 -6t0.5 -5q0 -10 -7.5 -15t-29 -9.5t-29.5 -7.5q-2 -1 -6 -1q-18 0 -18 36q-2 29 -7 85.5t-7 85.5q-18 -1 -59 -5
t-63 -4q-44 0 -44 37q0 38 32 41q34 3 127 17v17q0 28 -12 143q-24 0 -75.5 -12t-74.5 -12q-18 0 -33.5 15.5t-15.5 33.5q0 7 5 13t15.5 10.5t21.5 8.5t27 7.5t28.5 6t29.5 5t26.5 3.5t23 2.5t15.5 1.5q-1 16 -7 57.5t-6 63.5t12 34.5t32 12.5q15 0 25 -7.5t14 -22t6 -27
t2.5 -31.5t1.5 -27q0 -1 2 -17.5t4 -26.5q11 1 125 14q-13 95 -13 134q0 18 16.5 29.5t41.5 11.5q16 0 23.5 -29.5t11.5 -74.5t9 -62q95 6 136 13q9 0 14 -0.5t9 -4.5t5 -6t5 -12l6 -15q4 -22 4 -24q0 -9 -32.5 -16.5t-85 -13t-53.5 -5.5q11 -103 20 -172q5 0 13 -0.5
t12 -0.5q24 0 71 4.5t70 4.5q13 0 18 -5t5 -18q-3 -19 -5.5 -29t-13 -21t-28.5 -11l-127 -8q1 -18 23 -189q0 -2 0.5 -5t0.5 -4q0 -12 -22 -23.5t-55 -11.5zM304 330q100 6 138 8q-14 100 -21 166q-44 -1 -134 -11q3 -30 9 -84.5t8 -78.5z" />
    <glyph glyph-name="dollar" unicode="$" horiz-adv-x="416" 
d="M188 -68q-10 0 -10 18q0 79 1 119q-30 11 -66 45t-61 71q-11 17 -16.5 32.5t-12.5 28.5q-7 11 -7 18q0 9 21 18l18 7q14 6 20 6q10 0 25 -20.5t38 -54t44 -54.5q0 20 1 30l4 172q-1 1 -2.5 2t-3 3t-2.5 3l-16 14q-57 32 -97 85t-40 102q0 61 43 101t110 44q3 0 9.5 -1
t7.5 -1l3 55q0 3 0.5 11t0.5 13q24 0 38 -0.5t21.5 -2t10 -3.5t2.5 -6q0 -17 -2 -48.5t-2 -40.5q61 -31 102 -92q1 -1 4.5 -5t4.5 -6v-1q5 -7 5 -10q0 -5 -20 -22t-29 -17q-2 0 -12 12.5t-25.5 30.5t-27.5 28l-6 4q-8 -137 -11 -211q101 -92 134 -178l4 -11q0 -4 3 -16
t3 -20q0 -63 -45.5 -96t-106.5 -33q-3 -111 -3 -113q-10 -1 -29 -5.5t-25 -4.5zM190 469l6 177q-34 0 -53 -20.5t-19 -51.5q0 -38 23 -62zM247 140h16q18 0 25.5 9.5t7.5 31.5q0 11 -3 22q-20 49 -43 85q0 -1 -3 -148z" />
    <glyph glyph-name="percent" unicode="%" horiz-adv-x="542" 
d="M106 478q-34 0 -58 29t-24 70t31 73.5t60 32.5q32 -3 62 -36.5t30 -65.5q0 -40 -34 -71.5t-67 -31.5zM141 8q-57 0 -57 23q0 6 3 15q131 362 217 568q23 56 43 56h5q30 -2 30 -27q0 -15 -16 -54q-64 -154 -89 -235q-11 -33 -28 -72q-23 -51 -84 -247q-5 -17 -9.5 -22
t-14.5 -5zM110 531q20 0 36.5 15t17.5 35q0 20 -16 30.5t-31 10.5q-13 0 -27 -16t-14 -45q0 -13 8 -19.5t26 -10.5zM386 33q-41 0 -60 17t-20 54q2 8 5.5 28.5t6.5 32t8.5 25.5t15 21t22.5 7q38 0 70 -29.5t32 -66.5q0 -43 -23.5 -66t-56.5 -23zM389 78q15 0 24 13t9 29
q0 18 -11.5 32t-28.5 14q-24 0 -24 -40q0 -26 6 -37t25 -11z" />
    <glyph glyph-name="ampersand" unicode="&#x26;" horiz-adv-x="565" 
d="M465 -70q-23 0 -32 11q-22 35 -64 93q-65 -62 -146 -62q-88 0 -147 48.5t-59 136.5q0 79 28.5 133t91.5 117q-42 104 -46 142q-1 7 -1 20q0 48 17.5 86t44 59t54 31.5t51.5 10.5q57 0 89 -49q2 -3 8 -11.5t8 -12.5t6.5 -12.5t7 -14.5t5 -14.5t3.5 -18t1 -20.5
q0 -57 -35.5 -106t-96.5 -101l-8 -7q20 -43 28 -57q72 -118 87 -138q25 48 39 91q0 10 12 10q9 0 31.5 -7t35.5 -18q4 -4 4 -16v-9q-4 -52 -54 -135q35 -41 110 -120q12 -12 12 -13q0 -11 -75 -44q-5 -3 -10 -3zM208 475l52 52q36 36 36 66q0 28 -14 58t-39 30
q-30 0 -46.5 -35.5t-16.5 -69.5q0 -2 0.5 -7t0.5 -7q1 -24 27 -87zM208 46q50 0 103 70q-70 101 -79 119q-29 52 -53 91q-57 -67 -57 -151q0 -57 24.5 -93t61.5 -36z" />
    <glyph glyph-name="quotesingle" unicode="'" horiz-adv-x="127" 
d="M67 570q-32 -5 -33 6l-1 7q0 19 2 75.5t2 88.5q0 4 -1 6q0 5 -2 15q-3 19 16 23q4 0 6 1q3 0 10 1.5t12 2.5t10 1t8 -2t4 -6v-57q-3 -117 -5 -141q-1 -17 -17 -19z" />
    <glyph glyph-name="parenleft" unicode="(" horiz-adv-x="268" 
d="M213 -191q-28 0 -60 41t-57 92q-27 57 -50 163q-29 104 -29 218q0 27 1 41q0 4 1.5 33.5t2.5 37.5t3 32.5t4.5 37.5t6.5 32.5t10 36.5q19 66 52.5 139.5t57.5 73.5q22 0 50 -16t28 -27t-24.5 -54.5t-30.5 -60.5q-54 -151 -54 -350q0 -133 60 -277q20 -47 53 -75
q11 -10 11 -35q0 -22 -12 -52.5t-24 -30.5z" />
    <glyph glyph-name="parenright" unicode=")" horiz-adv-x="246" 
d="M70 -187q-21 0 -40 18t-19 37q0 15 7 23q103 128 103 388q0 113 -23 215q-9 40 -36 114t-31 87q-5 17 -5 29q0 21 30 46.5t55 25.5q26 0 67 -142q48 -169 48 -366v-75q0 -238 -115 -383q-13 -17 -41 -17z" />
    <glyph glyph-name="asterisk" unicode="*" horiz-adv-x="505" 
d="M152 360q-20 0 -31 7t-12.5 14t-1.5 19q11 10 11 29q9 14 20.5 36.5t24.5 38.5q0 17 10 25h-34q-15 -4 -39 -4.5t-48 -6.5q-42 0 -42 37q0 20 35.5 28t79 8.5t48.5 2.5q0 5 -5 8.5t-5 5.5q-20 23 -26.5 32.5t-13.5 20.5t-23 32q-20 20 -20 27q0 6 20 19t23 13
q12 0 26.5 -11t24.5 -29q17 -21 23.5 -24t31.5 -32q29 48 36 62q0 7 7 17t16 21.5t12 16.5q12 0 32 -5t24 -5q12 0 12 -26q-4 -10 -10.5 -21t-11.5 -18t-13.5 -17.5t-11.5 -14.5q-4 -20 -8 -27.5t-13.5 -15.5t-18.5 -20q19 0 41 -0.5t37.5 -0.5h17.5q11 0 36 6q56 0 56 -43
q0 -4 -3 -7.5t-8 -5t-11.5 -3t-13 -2t-13.5 -0.5t-12 0.5t-9 0.5h-4q-23 -8 -89 -8q3 -3 6 -7.5t4.5 -6.5t4.5 -3.5t7 -1.5q8 -17 14 -27t9.5 -15t14 -17.5t19.5 -24.5q0 -10 12 -10q0 -7 -1 -12t-6.5 -11t-15.5 -5q-22 -12 -30 -12q-6 0 -15 7t-19.5 20t-19.5 24.5
t-21.5 29.5t-18.5 26q-8 0 -8 10q0 -3 -1.5 -5t-3 -3t-3.5 -1.5t-4 -0.5h-1q-5 -22 -21.5 -52t-22.5 -51q0 -31 -33 -31z" />
    <glyph glyph-name="plus" unicode="+" horiz-adv-x="441" 
d="M219 73q-9 0 -12 5t-5 19q-12 104 -16 158l-115 -10l2 -1h-13l-10 -1q-14 0 -23 15.5t-9 33.5q0 19 7 28t15 10.5t24.5 2t25.5 2.5l87 10q-6 67 -11.5 91.5t-7.5 45.5l-2 20q60 10 92 14q3 -12 3 -20v-5q0 -57 7 -138q26 2 57 6.5t51 7t28 2.5q33 0 33 -76
q0 -10 -4.5 -14t-16.5 -6q-39 -4 -137 -12q2 -16 9 -72.5t10 -88.5v-3v-9v-4l-51 -9q-16 -2 -18 -2z" />
    <glyph glyph-name="comma" unicode="," horiz-adv-x="164" 
d="M55 -166q-20 0 -32.5 11.5t-12.5 24.5q0 10 21 38q40 50 40 104q0 38 -17 73q-6 12 -6 17q0 8 11.5 12t42.5 10q2 0 6 1t6.5 1.5t4.5 0.5q19 0 26.5 -42t7.5 -79q-7 -66 -20 -99t-55 -67q-9 -6 -23 -6z" />
    <glyph glyph-name="hyphen" unicode="-" horiz-adv-x="375" 
d="M54 244q-15 -3 -25.5 12.5t-10.5 35.5q0 21 5 29.5t20 9.5q8 1 23.5 2t23.5 2q73 9 193 26q35 5 43 -2.5t15 -53.5q3 -21 -0.5 -28.5t-19.5 -8.5q-43 -4 -126.5 -11.5t-123.5 -11.5l2 -1h-19z" />
    <glyph glyph-name="period" unicode="." horiz-adv-x="173" 
d="M96 -39q-27 -12 -48 3.5t-18 44.5q5 39 33 64q20 18 48 9q26 -10 31 -39q4 -25 -9.5 -48t-36.5 -34z" />
    <glyph glyph-name="slash" unicode="/" horiz-adv-x="420" 
d="M85 -118q-73 0 -73 32q0 10 4 21q15 46 54.5 164.5t61 181t56 159t67 177.5t66.5 157q10 23 31 23h5q38 -3 38 -39q0 -17 -21 -73q-83 -217 -114 -326q-23 -67 -36 -98q-16 -38 -32.5 -87t-25 -77.5t-27 -94.5t-23.5 -82q-7 -24 -12 -31t-19 -7z" />
    <glyph glyph-name="zero" unicode="0" horiz-adv-x="456" 
d="M231 -27q-32 0 -64 17q-41 14 -70.5 50t-45 84t-22.5 96.5t-7 99.5q0 34 3 63q0 198 80 358q22 46 56.5 78t74.5 32q47 0 94 -38t65 -87q37 -101 37 -278q0 -232 -68 -392q-14 -34 -56.5 -59t-76.5 -24zM223 57q19 0 39 17.5t29 40.5q17 41 23.5 88.5t7.5 107t5 90.5
q4 60 4 110q0 42 -3.5 81t-12.5 78.5t-27.5 63.5t-44.5 24q-71 0 -113 -189l-3 -12q-2 -30 -6.5 -81t-7.5 -90.5t-3 -73.5q0 -167 72 -238q17 -17 41 -17z" />
    <glyph glyph-name="one" unicode="1" horiz-adv-x="353" 
d="M239 30q-39 0 -42 4t-4 15q-5 96 -14 289t-15 290q0 1 -0.5 3t-1 5.5t-0.5 7.5q-49 -56 -58 -56q-13 0 -43 16.5t-30 25.5t11.5 30t30.5 50.5t24 38.5q1 2 7.5 14.5t9.5 17.5t9 13t13 11.5t15 4.5q13 1 48 5t54 4q14 0 18.5 -7t6.5 -26q0 -1 3 -104q2 -67 6.5 -276
t7.5 -324q0 -2 0.5 -6t0.5 -6q0 -28 -10 -34t-47 -6z" />
    <glyph glyph-name="two" unicode="2" horiz-adv-x="505" 
d="M106 -2q-22 0 -22 16q0 4 4 12q7 14 19 48t22 52q28 49 66.5 145t50.5 121q55 118 53 281q0 21 -10 35t-29 14q-17 0 -34.5 -7t-29.5 -15t-29.5 -25.5t-24.5 -25.5t-24.5 -30t-19.5 -24q-11 -14 -21 -14q-12 0 -30 21t-18 32q0 4 6 15q36 63 97 109.5t120 46.5
q78 0 111 -50q34 -55 34 -119q0 -26 -4 -47q-15 -85 -77 -268q-39 -114 -88 -202q-1 -1 -1 -3q-1 -4 -2 -7q41 4 111.5 9.5t95.5 7.5q10 0 17.5 -1t12 -5.5l7 -7t3.5 -11.5t1.5 -13t0 -17t-0.5 -18q0 -12 -6 -19.5t-19.5 -11t-22.5 -4.5t-29 -1.5t-24 -0.5
q-210 -12 -258 -18h-8z" />
    <glyph glyph-name="three" unicode="3" horiz-adv-x="469" 
d="M192 -17q-68 0 -110.5 71t-46.5 161q0 3 -1 11.5t-1 12.5q0 36 66 36q7 0 12 -6.5t7.5 -19.5t4 -24.5t3 -29t2.5 -25.5q4 -36 27 -66t42 -30q9 0 23 6q58 24 84.5 69t26.5 90q0 33 -2 50q-7 73 -19 94q-15 26 -50 26q-41 0 -69 -12q-5 -3 -9 -3t-8 4t-4 9q0 4 1.5 11
t4 16t3.5 14q2 15 5 18.5t15 6.5q61 13 89.5 50t46.5 104q5 20 5 37q0 37 -19.5 62.5t-50.5 25.5q-15 0 -30 -7t-25 -13.5t-24.5 -24.5t-19.5 -25.5t-19.5 -30.5t-16.5 -26q-5 -8 -13 -8q-14 0 -39 11.5t-25 22.5q0 13 7 27q81 149 215 149q67 0 108 -49.5t41 -144.5
q0 -52 -23 -91t-67 -83l3 -3q25 -6 42.5 -29.5t25.5 -55t11 -56t3 -43.5q0 -62 -14 -107.5t-29 -65.5t-50 -59q-21 -27 -62 -42t-77 -15z" />
    <glyph glyph-name="four" unicode="4" horiz-adv-x="514" 
d="M360 6q-49 0 -57 10t-8 69q0 44 -4 150t-8 106q-59 -4 -198 -20q-1 0 -3 -0.5t-3 -0.5q-25 0 -27 30q-19 251 -19 399q0 46 78 46q8 0 13 -5t6.5 -15.5t2 -18t0 -23t-0.5 -19.5q0 -52 2.5 -148t2.5 -134q0 -9 1 -15l147 15q2 14 2 18q-8 285 -8 325q0 30 17.5 38.5
t67.5 8.5q16 0 16 -23q0 -16 -1.5 -48.5t-1.5 -48.5q0 -29 2.5 -88.5t2.5 -89.5v-57v-7.5v-6.5t0.5 -5.5t2 -4.5t4.5 -2.5t7.5 -2t10.5 -0.5q12 0 36 2.5t37 2.5q14 0 14 -18v-8v-9v-8.5t-0.5 -9t-1.5 -8.5t-3 -8l-4 -6t-5 -5t-7 -2q-74 -10 -88 -15q0 -53 2 -156t2 -155
q0 -29 -29 -29z" />
    <glyph glyph-name="five" unicode="5" horiz-adv-x="441" 
d="M194 -19q-63 0 -110.5 60t-52.5 139q0 7 -2 29t-2 34q0 11 2 14.5t11 5.5q59 11 70 11q10 0 14 -19q27 -173 81 -173q38 0 78.5 67.5t40.5 169.5q0 65 -22.5 108t-70.5 43q-69 0 -130 -93q-8 -17 -29 -17q-9 0 -14 7.5t-6.5 21t-2 24.5t0.5 26t1 18v103q0 34 -3 103
t-3 104q0 4 0.5 10t0.5 7.5t1 5t2.5 4t4.5 2t6.5 2t9.5 1.5q36 4 74.5 10t91.5 16t74 14q3 0 7.5 0.5t6.5 0.5q13 0 17 -8.5t4 -32.5l-1 -40v-9q0 -15 -63.5 -30.5t-105.5 -18.5q-33 0 -33 -21v-10v-17q0 -18 2.5 -54.5t2.5 -63.5q9 3 24 8.5t22.5 8t19 5t22.5 2.5
q42 0 83 -26t65 -74q31 -76 31 -171q0 -56 -26 -147q-21 -73 -74 -116.5t-120 -43.5z" />
    <glyph glyph-name="six" unicode="6" horiz-adv-x="464" 
d="M207 -33q-58 0 -103 44t-67 108t-22 133q0 94 16.5 200t32.5 170t48 182q5 17 11 23t19 6q69 0 69 -17q0 -12 -7 -28q-7 -17 -13 -33.5t-9.5 -26.5t-8 -29t-6 -25.5t-6.5 -32.5t-7 -34q-38 -182 -52 -306l3 -2q15 35 24 54.5t25.5 50t31.5 47.5t36 35.5t46.5 26.5t55.5 8
q60 0 92 -65t32 -140q0 -91 -40 -174t-95.5 -129t-105.5 -46zM215 53q14 0 26 6.5t22 20t16.5 24t16 30t12.5 26.5q4 17 16.5 55t20.5 70t8 59q0 46 -26 76h-11q-21 0 -39.5 -10.5t-35.5 -32t-26.5 -37t-23.5 -40.5q-38 -68 -38 -144q0 -32 18 -67.5t44 -35.5z" />
    <glyph glyph-name="seven" unicode="7" horiz-adv-x="445" 
d="M109 -40q-12 0 -12 11q0 7 3 19.5t4 15.5q23 101 88.5 337t95.5 356h-43q-66 0 -229 -11q-4 30 -4 42q0 46 12 53q4 3 10 3q54 2 170.5 9t200.5 9q15 0 15 -14q0 -5 -1 -8q-116 -408 -215 -798q-1 -2 -2 -5.5t-2 -6.5l-2 -6q-66 -6 -89 -6z" />
    <glyph glyph-name="eight" unicode="8" horiz-adv-x="469" 
d="M228 -23q-85 0 -148 53t-63 153q0 61 20.5 132.5t54.5 123.5q9 13 37.5 36.5t37.5 35.5q-42 34 -59 59t-17 69q0 52 17.5 94t44 66t54.5 36.5t53 12.5q54 0 92.5 -56t38.5 -126q0 -43 -8.5 -67.5t-20 -37t-49.5 -46.5q-7 -7 -7 -9q71 -38 108 -94t37 -161
q0 -118 -67 -196t-156 -78zM234 564q27 0 48 28.5t21 60.5q0 2 -0.5 6t-0.5 6q0 36 -11 60t-22.5 31.5t-20.5 7.5q-30 0 -47.5 -39.5t-17.5 -76.5q0 -84 51 -84zM214 59q36 0 64 25t42 62t20.5 70.5t6.5 60.5q0 58 -28.5 115.5t-60.5 57.5q-21 0 -39.5 -10.5t-29.5 -23
t-22.5 -36t-15.5 -36.5t-11.5 -38.5t-8.5 -28.5q-2 -15 -4 -41t-3 -34q1 -64 26 -103.5t64 -39.5z" />
    <glyph glyph-name="nine" unicode="9" horiz-adv-x="450" 
d="M296 -28q-12 0 -16 12.5t-4 42.5q0 90 17.5 272t21.5 240q1 6 1 17q0 31 -5 37q-4 -5 -12.5 -21t-13.5 -21q-73 -77 -158 -77q-60 0 -89.5 36.5t-29.5 94.5q0 47 15 86t38 64t57.5 45t67 31t72.5 20q14 2 27 2q26 0 49.5 -3t45 -10.5t34 -21.5t12.5 -33q0 -45 -7 -129
t-8 -107l-21 -330q-1 -28 -6.5 -45t-5.5 -47q0 -14 5 -94q0 -2 0.5 -11.5t0 -15t-1.5 -13t-4.5 -11.5t-9.5 -5q-28 -5 -72 -5zM146 566q37 0 81.5 44.5t71.5 91.5t27 62q0 18 -24 18h-7q-52 -5 -129 -62q-72 -52 -72 -122q0 -32 52 -32z" />
    <glyph glyph-name="colon" unicode=":" horiz-adv-x="225" 
d="M95 466q-21 0 -32.5 14.5t-11.5 38.5q3 27 21 51.5t42 24.5q23 0 36.5 -15.5t13.5 -37.5q0 -28 -20.5 -52t-48.5 -24zM102 -6q-20 0 -34 15.5t-14 39.5q0 23 15.5 44.5t37.5 21.5q21 0 36.5 -19.5t15.5 -39.5q-1 -23 -18.5 -42.5t-38.5 -19.5z" />
    <glyph glyph-name="semicolon" unicode=";" horiz-adv-x="175" 
d="M80 405q-21 0 -33.5 13.5t-12.5 34.5q0 22 14 43.5t33 21.5q40 0 48 -57q0 -24 -14 -40t-35 -16zM87 -166q-17 0 -40.5 12.5t-23.5 23.5t16 38q30 51 30 104q0 37 -13 73q-4 11 -4 17q0 3 12.5 8.5t33 11t37.5 5.5q8 0 13.5 -15t8 -38t3.5 -39.5t1 -28.5q0 -57 -12 -94
t-45 -72q-6 -6 -17 -6z" />
    <glyph glyph-name="equal" unicode="=" horiz-adv-x="377" 
d="M45 417q-14 0 -23 15.5t-9 33.5q0 13 9.5 22.5t26 14t30.5 6.5t29.5 2.5t16.5 0.5q5 1 62 4q4 0 11.5 -0.5t11.5 -0.5q9 0 36.5 3t47.5 3q22 0 30 -12.5t8 -43.5q0 -16 -1 -22t-5 -10t-14 -5q-42 -4 -123 -4.5t-123 -4.5q-3 -2 -21 -2zM50 243q-14 0 -23 15.5t-9 33.5
q0 19 7 28t15 10.5t24.5 2t25.5 2.5q73 9 193 26q16 3 26 3q33 0 33 -76q0 -11 -4.5 -14.5t-16.5 -5.5q-258 -25 -262 -25h-9z" />
    <glyph glyph-name="question" unicode="?" horiz-adv-x="544" 
d="M176 69q-11 0 -13 11q-2 23 -1 29q24 146 33 180q33 137 119 223q5 5 7 8q31 34 32 70q4 55 -25 100q-16 27 -41 25q-2 -1 -6.5 0t-5.5 1q-12 0 -23 -2.5t-17 -5t-18.5 -9.5t-18.5 -10q-34 -17 -54 -55q-2 -2 -3.5 -6t-3.5 -6q-10 -11 -18 -3q-36 31 -60 59q-13 13 3 30
q31 33 40 40q49 35 92 51q50 18 94 9q63 -13 74 -19q53 -31 75 -109q14 -46 10 -71q1 -82 -55 -160q-8 -12 -29.5 -41.5t-31.5 -46.5q-57 -85 -64 -178q0 -4 -12 -91q-1 -19 -20 -22q-14 -1 -59 -1zM200 -117q-23 1 -37.5 16t-14.5 36q0 22 14 36t36 13q26 -1 41 -18t11 -40
q-4 -20 -18 -32t-32 -11z" />
    <glyph glyph-name="at" unicode="@" horiz-adv-x="876" 
d="M272 -52q-70 -2 -120 28t-77.5 84.5t-39.5 118t-11 139.5q0 46 19 101.5t59.5 113t95.5 105t134.5 77.5t168.5 30q68 0 150 -34t117 -80q6 -7 16.5 -20.5t15 -19.5t11 -16.5t10.5 -20.5t7 -22q25 -95 15 -216q-1 -15 -4.5 -34t-11.5 -49t-19.5 -56t-28.5 -53.5t-40 -42.5
t-52.5 -23.5t-66.5 4.5q-43 19 -62 45.5t-28 91.5v52q-1 1 -2 1q-2 0 -2 1q-5 -5 -14 -21.5t-12 -20.5q-35 -35 -79 -58q-34 -18 -74.5 -19t-73.5 17q-44 25 -50 106q-2 37 10 79t34 69q36 45 86 68t120 38q25 4 60.5 0t60.5 -11q23 -6 41 -32q8 -11 6 -28l-15 -231
q0 -2 -1 -12t-1 -14.5t1.5 -12.5t5 -12.5t11 -9t18.5 -5.5q33 2 50.5 73.5t16.5 147.5t-6 126q-1 3 -3.5 16.5t-3.5 18t-4 15.5t-6 17.5t-7.5 15.5t-10.5 16q-27 34 -124.5 50t-142.5 -1q-50 -16 -87.5 -32t-81 -45t-71.5 -63.5t-47 -87.5t-19 -117q0 -49 2.5 -80t14 -67
t32.5 -56.5t59.5 -34t94.5 -14.5q27 -1 88.5 7.5t75.5 8.5q5 0 8.5 -2.5t6 -8t3.5 -10.5t2 -13.5t1 -13.5t0.5 -14t0.5 -12q1 -13 -72.5 -22.5t-157.5 -12.5zM361 226q22 0 43 19q4 3 27 22t29 25t19.5 21.5t24.5 32.5q3 5 10.5 16t12.5 18.5t9 17.5t5 19q3 24 -20 25h-11
q-37 -3 -62 -19q-57 -36 -67 -43q-71 -51 -72 -120q-1 -20 13.5 -27.5t38.5 -6.5z" />
    <glyph glyph-name="A" unicode="A" horiz-adv-x="451" 
d="M62 -15q-24 2 -19 25q14 60 29 174.5t19 138.5q5 27 10.5 78t6.5 62q27 199 72 352q7 20 21 24q58 16 87 21q12 2 15.5 -3t5.5 -21q15 -144 15 -146q16 -90 41 -374q3 -38 11.5 -108.5t11.5 -98.5q1 -13 2 -27.5t2 -32t2 -27.5l1 2q1 -17 -16 -23q-26 -8 -84 2
q-8 2 -11 17q-12 98 -13 126q-5 111 -16 181q-3 18 -4 38t-1 45t-1 38v33l-34 -7l-30 -149q-20 -96 -28 -144q-8 -52 -20 -156q-2 -22 -8 -28.5t-27 -9.5q-14 -2 -25 -2h-15zM211 559l45 13l-18 97q-10 -17 -19.5 -56t-7.5 -54z" />
    <glyph glyph-name="B" unicode="B" horiz-adv-x="504" 
d="M74 -11q-18 0 -24 6.5t-6 24.5v408v327q0 23 4 69q0 12 7 15q44 20 61 23q76 14 119 4q66 -15 109.5 -58t49.5 -105v-15q0 -43 -26 -78q-24 -32 -52 -56q-5 -5 -63 -48q4 0 9.5 -0.5t8.5 -1t6 -0.5q71 -4 115 -64q20 -28 31 -58l1 -1q35 -103 20 -190q-3 -20 -15.5 -45.5
t-26.5 -40.5q-56 -58 -102 -76q-25 -10 -47 -13l-105 -21q-40 -6 -74 -6zM120 539q75 42 112 81q43 46 27 113q-7 27 -26 41t-47 12q-12 -1 -35 -4.5t-30 -4.5zM134 97q15 1 38 6q61 17 109 56q12 10 20 26h1q37 73 -12 151q-22 37 -53 42q-49 8 -103 -14v-267z" />
    <glyph glyph-name="C" unicode="C" horiz-adv-x="415" 
d="M207 1q-38 2 -56 7q-67 20 -81 88q-6 28 -20 126q-7 43 -8 91t0.5 110.5t1.5 91.5v7q0 80 27 154q20 52 55 85q33 30 73 23q70 -12 101 -61q35 -54 52 -122q5 -18 0 -25.5t-23 -9.5h-45q-1 4 -3 9.5t-3 9t-1 6.5q0 12 -3.5 25t-7 22t-10 23.5t-9.5 21.5q-7 15 -20 22
q-28 17 -46 -10q-15 -23 -22 -47q-27 -90 -26 -163q3 -170 4 -204q1 -19 12 -73q4 -14 9 -27q11 -28 31.5 -32t42.5 18q24 24 33 73q1 8 2 16.5t2 18.5t2 16q1 17 4 20t18 8q6 2 19 5.5t20 5.5l3 6q16 5 21 1.5t4 -18.5q-2 -85 -7 -115q-5 -31 -29 -112q-7 -22 -20 -40
q-37 -55 -97 -51z" />
    <glyph glyph-name="D" unicode="D" 
d="M443 288q3 -73 -56 -125q-50 -45 -134 -87q-9 -4 -19.5 -7.5t-25 -6.5t-21.5 -5q-12 -3 -36 -7q-16 -3 -22 0.5t-8 19.5q-16 104 -22 156q-14 110 -40 332l-18 162v15v15l31 7q22 4 40 4q32 0 63 -11q6 -2 20 -6.5t21.5 -7t18.5 -7.5t20 -11q30 -20 54 -47
q112 -133 128 -300v1q5 -42 6 -84zM307 346q11 190 -156 279q21 -78 38 -228t22 -179q8 6 21 16t22.5 18t16.5 16q33 39 36 78z" />
    <glyph glyph-name="E" unicode="E" horiz-adv-x="399" 
d="M82 4q-15 0 -16 13q0 5 -1 14t-1.5 16.5t-0.5 14.5q-4 170 -7 255q-2 52 -6.5 155.5t-6.5 155.5q-1 15 0 42t1 36q0 23 21 29q17 5 36 5l189 6q5 0 13 2t11 2q20 3 21 -16q2 -28 4 -84q0 -16 -18 -19q-55 -9 -58 -9l-123 -12q-3 0 -7 -2l9 -105l37 3q5 1 13.5 2.5
t15.5 2.5t13 1q14 1 20 -4.5t5 -19.5q0 -10 -2 -30t-2 -30q-2 -22 -22 -25l-33 -3l-40 -3l7 -264h29q94 4 128 14q8 2 15 2h5q15 0 15 -14v-102q0 -16 -18 -18q-11 -1 -33 -1l-198 -9q-3 0 -8 -0.5t-7 -0.5z" />
    <glyph glyph-name="F" unicode="F" horiz-adv-x="416" 
d="M110 -21q-23 0 -51 2q-25 2 -20 24t6 46t0 55.5t-1 46.5q3 137 5 411q0 32 -2 90.5t-2 77.5q0 22 1 33q1 20 8.5 28.5t28.5 9.5h15q15 0 21 -1q52 -5 144 6q48 6 72 8l2 3q14 1 19 -4t5 -18q0 -39 -1 -59q-1 -15 -7 -21.5t-21 -8.5q-10 -2 -18 -2h-7q-42 4 -102 -7
q-10 -2 -29 -3t-24 -2l6 -139h53q6 0 23.5 1t27.5 0q21 -1 21 -23q0 -9 -0.5 -26t-0.5 -25q0 -18 -5.5 -25t-23.5 -8q-12 -1 -25 -1.5t-28.5 -1t-24.5 -0.5h-13l6 -87q1 -60 1 -80t-3 -79.5t-4 -79.5q-2 -35 -4 -105q-1 -19 -8.5 -27t-25.5 -9h-14z" />
    <glyph glyph-name="G" unicode="G" horiz-adv-x="550" 
d="M281 -35q-100 10 -151 109q-48 93 -72 197q-30 134 -19 295q1 17 4.5 36.5t9 43.5t7.5 37q3 21 9 42q30 118 136 165q55 20 102.5 4.5t76.5 -55.5q20 -27 39.5 -70t27.5 -77l15 -48q9 -32 -24 -36q-7 -1 -21 -2.5t-21 -2.5q-17 -2 -21 14q-2 6 -5.5 18.5t-5.5 18.5
q-29 73 -34 84q-13 28 -43 44.5t-62 13.5q-23 -3 -36 -25q-24 -37 -32 -92q-17 -107 -4 -270q6 -73 18 -140q11 -53 33 -107q10 -23 36 -53q27 -29 54.5 -25.5t50.5 33.5q17 24 23 54q5 27 14 123q3 27 3 54q0 9 -4 21q-63 -15 -75 -16q-20 -3 -25.5 1.5t-10.5 24.5
q-1 3 -2.5 9.5t-2.5 11.5t-1 9q-3 22 18 26q25 5 75 13q31 5 93 13q1 0 4 0.5t5 0.5q14 2 18.5 -2.5t5.5 -17.5l-3 2v-35t1 -34q0 -14 2 -59t2 -70q0 -80 -47 -177q-20 -43 -57 -75q-42 -35 -104 -29z" />
    <glyph glyph-name="H" unicode="H" horiz-adv-x="461" 
d="M112 -19q-15 -1 -20 3t-6 19q-12 92 -15 138q-11 139 -18 279q-1 22 -7 108t-6 108v108l3 36q3 25 31 30l69 12q18 3 21 -17q10 -80 11 -96q1 -24 2 -51.5t2 -61.5t2 -52q0 -7 2 -15l71 11q-2 21 -5.5 61t-4.5 59q-6 80 -8 120q-1 18 3 22.5t22 6.5l66 9q17 2 24 -3
t8 -22q16 -191 15 -318l6 -198q2 -54 2 -81v-8q0 -68 16 -132l-3 2q3 -12 5 -33q1 -11 -3 -15.5t-15 -5.5q-46 -4 -93 -6q-16 -1 -20.5 3t-5.5 21q-1 28 -2.5 83t-2.5 82q-2 74 -8 222q0 8 -2 18l-66 -14v-62q-2 -143 12 -285q2 -20 2 -60q0 -19 -18 -20q-44 -4 -66 -5z" />
    <glyph glyph-name="I" unicode="I" horiz-adv-x="239" 
d="M133 11q-16 2 -29 2h-22q-24 0 -30.5 5.5t-6.5 28.5q0 35 0.5 74.5t1.5 88t1 74.5v108h4v340q0 19 -8 25q-15 12 3 23q14 7 29 9q14 2 44 4q20 2 26.5 -4t7.5 -25l6 -153q2 -55 5.5 -164t5.5 -163l-3 -3q1 -26 5 -106.5t5 -124.5q1 -33 -5.5 -38.5t-39.5 -0.5z" />
    <glyph glyph-name="J" unicode="J" horiz-adv-x="410" 
d="M224 1q-115 -6 -157 103q-13 33 -19 74q-5 42 -7 126q-1 19 4.5 24t25.5 6q46 0 65 9q21 11 23 -16l9 -126q2 -32 22 -56q21 4 34 33q13 31 13 81q-2 294 -4 441q0 35 -11 49q-12 15 14 24q7 2 21 5.5t16 3.5l39 9q28 6 29 -22q1 -10 1 -29v-28l2 2q2 -59 5 -176t5 -175
q3 -123 -14 -220q-15 -83 -80 -130q-18 -12 -36 -12z" />
    <glyph glyph-name="K" unicode="K" horiz-adv-x="543" 
d="M175 -79q-7 0 -20 1t-19 1h-57h-15h-7q-14 0 -14 14v1q2 44 2 66q-2 392 -4 588q-2 146 -2 218q0 18 1.5 53.5t1.5 40.5q1 0 14.5 4t20.5 5q22 2 66 2q14 0 18.5 -4t4.5 -17l-3 -321v-37q7 10 10 15q37 102 131 296q10 20 18 44q7 17 21 18q13 1 54 6t63 7q18 1 24 -8
t-2 -26q-40 -88 -62 -131h-2q-17 -31 -51.5 -93.5t-50.5 -94.5q-22 -43 -87 -177q23 -28 27 -32q36 -35 78 -111q6 -12 10 -18q38 -57 113 -213q4 -7 11.5 -20.5t10.5 -20.5q6 -13 1.5 -22t-18.5 -10q-20 -1 -42.5 -1.5t-50 -1t-42.5 -0.5q-17 0 -26 19l-102 216l-12 24
q-2 -10 -2 -17l15 -169q1 -7 2.5 -20t2.5 -23.5t1 -19.5q1 -19 -5.5 -25t-25.5 -6z" />
    <glyph glyph-name="L" unicode="L" horiz-adv-x="405" 
d="M319 -42q-14 1 -40.5 2.5t-48 2.5t-40.5 1q-33 0 -97 -4q-16 -1 -20.5 3t-5.5 19q-6 130 -7 195q-2 89 -4.5 266t-3.5 265q0 27 -8 162v3q-3 29 -1 31q3 4 8 6t13.5 4.5t10.5 3.5q6 2 13 2q24 2 31 -4.5t8 -30.5q1 -30 4 -89t4 -88q1 -41 1 -123q0 -180 6 -252
q2 -23 8 -75.5t9 -91.5t1 -76q0 -7 2 -15q49 -4 75 4q27 8 83 20q15 3 17 -14l1 -3q6 -46 8 -69q1 -5 1 -19v-11q-1 -16 -6 -21t-22 -4z" />
    <glyph glyph-name="M" unicode="M" horiz-adv-x="604" 
d="M457 -44q-18 -6 -18 19q-2 68 -2 102l6 354q0 10 1.5 30t2.5 30v3q0 6 -4 14q-21 -55 -23 -62q-13 -45 -37 -135q-4 -15 -9 -19t-21 -5q-37 -2 -58 6l-26 3q-13 1 -16 4t-4 16q-8 98 -13 146q-1 11 -3 23.5t-5 28t-4 23.5h-4l-3 -9q-6 -26 -35 -211q-5 -30 -38 -221
q-1 -6 -2.5 -17t-3 -20t-3.5 -17q-2 -12 -6 -15t-16 -4l-60 -3q-13 0 -11 15q4 24 7 36q19 77 65 336q5 32 17.5 96t18.5 96q1 7 24 164q2 9 5.5 28.5t5.5 28.5q3 14 17 14q9 1 28 2.5t29 1.5q16 2 17 -14q1 -13 3.5 -39t3.5 -39q14 -146 20 -219q0 -2 6 -98q0 -6 1 -13.5
t2 -17t2 -16.5l7 15q40 130 59 196q23 77 67 231q2 8 3 10.5t4 5t5.5 3t10.5 1.5l51 6q10 1 13 -1.5t4 -13.5q0 -19 2 -57t2 -57q2 -146 2 -219q0 -48 -1 -142.5t-1 -141.5q0 -32 0.5 -68t1.5 -80t1 -68l2 6q0 -4 1 -13.5t1 -14.5q2 -17 -14 -18q-16 -2 -30 -2q-32 2 -48 -4
z" />
    <glyph glyph-name="N" unicode="N" horiz-adv-x="583" 
d="M528 79q1 -33 -1 -99q0 -15 -4 -18.5t-20 -3.5q-10 0 -30 -1.5t-30 -1.5q-25 1 -75 5q-11 1 -20 21q-38 100 -56 150q-68 188 -110 279q-2 5 -7.5 16t-8.5 16l-6 -1q0 -7 -2 -19.5t-2 -19.5q-1 -22 -2.5 -67t-2.5 -68q-4 -82 -14 -246q0 -8 -2 -18q-4 -16 -17 -16
q-18 -2 -32 -2h-17q-18 1 -23 7t-4 24q0 9 1 27t1 27q-4 448 -5 672q0 11 2.5 32.5t3.5 29.5q32 2 42 2h17q16 -1 16 0q14 2 19.5 -1t9.5 -15q20 -66 84 -219q8 -21 23 -60t21 -53q30 -80 46 -120q6 -16 19.5 -47.5t20.5 -47.5q8 -20 23.5 -59t23.5 -58l7 -10v36
q-13 162 -15 405q-1 75 -5 225q-1 28 3.5 33.5t32.5 8.5q16 2 48 8q15 2 19 -1t5 -18q6 -134 8 -201l3 1zM431 40l2 2z" />
    <glyph glyph-name="O" unicode="O" horiz-adv-x="424" 
d="M143 -5q-57 24 -74 93q-15 62 -22 121q-2 22 -3.5 47.5t-3 56t-2.5 47.5q2 123 22 248q0 1 4 30t8 43q8 29 22 63q14 35 55.5 54.5t75.5 13.5q36 -7 58 -36q21 -25 35 -68l1 3q18 -55 36 -169q25 -154 -9 -383q-5 -29 -20 -65.5t-32 -59.5q-31 -43 -65 -52t-86 13z
M177 118q18 -27 34 0q13 21 21 49q0 1 9 56q26 173 7 318q-4 32 -26 118q-7 28 -24 28q-20 0 -28 -27q-17 -56 -18 -80q-1 -18 -1 -162h-5q4 -138 7 -207q2 -57 26 -93h-2z" />
    <glyph glyph-name="P" unicode="P" horiz-adv-x="388" 
d="M66 -16q-24 -1 -25 22q-1 0 -1 16l1 17q2 66 2 99l6 564q0 11 -1 33t-1 33q1 24 8 31.5t31 10.5q47 6 110 -6q58 -11 95 -47q13 -13 24.5 -36.5t13.5 -43.5l-1 1v-17t1 -16q3 -30 -24 -57q-46 -45 -118 -51q-8 -1 -48 -5v-23v-26.5v-21.5q-1 -29 -3.5 -88t-3.5 -89
l-9 -237q0 -22 -1 -33q-1 -16 -6 -20.5t-20 -6.5zM146 645h7q27 0 51 13q14 8 15.5 21.5t-10.5 24.5q-6 6 -13 8l1 -1q-37 11 -64 9z" />
    <glyph glyph-name="Q" unicode="Q" horiz-adv-x="429" 
d="M312 -27l-57 40q-10 -14 -20 -24q-31 -28 -64 -24t-57 38q-34 48 -43 109q-36 236 -33 438q0 17 0.5 69t1.5 81q2 26 15 59.5t30 53.5q49 60 117 20q20 -11 39.5 -33t26.5 -43q16 -42 30 -103.5t17 -106.5q2 -41 10 -246v-22q0 -65 -14 -125q-2 -10 -2 -19l52 -43l-2 -3
q15 -13 8 -32q-11 -23 -21 -50q-9 -25 -34 -34zM189 76l14 27q-22 24 -32 34q-8 8 -8 18q0 4 2 10l8.5 25.5l8.5 25.5q7 17 24 8v2q3 -1 5.5 -3t6.5 -4.5t7 -4.5q11 56 11 59q18 188 -42 391q-4 16 -10 24q-12 20 -26 2q-16 -22 -18 -36q-12 -58 -15 -109q-5 -96 12 -336
q1 -24 13 -108q2 -12 7 -22q14 -30 32 -3z" />
    <glyph glyph-name="R" unicode="R" horiz-adv-x="494" 
d="M343 -17q-18 -1 -24.5 3t-14.5 22l-153 330q-1 3 -8 14q-3 -8 -5 -22l3 -259l1 -23q0 -22 -1 -22q-1 -20 -21 -19q-28 2 -51 7q-17 3 -19 24q-2 18 -2 27q0 26 1 73.5t1.5 86.5t0.5 74q0 37 -5 225q-4 156 -5 234q0 11 4 25l75 23q123 10 185 -27q19 -11 34 -27
q27 -33 37.5 -74.5t-3.5 -88.5t-59 -79q-13 -9 -91 -52l-21 -11q45 -69 60 -93q21 -33 39 -66q48 -86 70 -130l3 -6q22 -44 62 -134q10 -22 -16 -26q-37 -6 -77 -9zM142 510q8 2 14 5q64 38 95 59q12 10 15 23q4 16 4 29q0 36 -20 65q-4 6 -19 15q-33 18 -106 12z" />
    <glyph glyph-name="S" unicode="S" horiz-adv-x="599" 
d="M296 -1q-111 -9 -171 82q-36 55 -55 125q-15 53 -28 120q-4 19 1.5 26.5t24.5 10.5l20 3q19 3 25 -0.5t13 -21.5q9 -25 24.5 -72.5t19.5 -58.5q14 -41 28 -71q17 -36 70 -47q29 -6 40 20t10 45q-10 137 -60 227q-7 13 -12 20q-36 43 -67 118q-43 105 14 189q29 43 75 61
t98 7q10 -2 15 -5q3 -2 22 -14t26 -17t19 -15.5t19 -21.5q12 -17 67 -110q5 -10 6 -14v-1q6 -16 -9 -23q-10 -4 -30 -14q-11 -6 -16 -4.5t-12 12.5q-32 54 -49 81q-22 33 -56 51q-20 13 -51 3.5t-42 -33.5q-26 -61 -6 -105q36 -78 75 -149q71 -127 77 -237l1 -15v-11
q0 -24 -12 -53.5t-28 -46.5q-14 -16 -39.5 -27.5t-46.5 -13.5z" />
    <glyph glyph-name="T" unicode="T" horiz-adv-x="466" 
d="M193 31q-18 -3 -26 4t-7 25l6 90q10 186 14 279q3 72 7 206q-18 2 -21 2q-52 0 -78 -1q-27 -1 -35 5t-12 33q-2 16 -2 30v18q0 19 21 21q40 4 60 5q112 4 168 4q34 0 102 -4l2 2q12 -1 16 -5.5t3 -16.5q-1 -25 -5 -75q-2 -14 -6.5 -18t-18.5 -4q-9 0 -19 0.5t-22.5 1.5
t-19.5 1h-47v-31q-7 -312 -10 -375l-15 -171q-2 -19 -19 -20z" />
    <glyph glyph-name="U" unicode="U" horiz-adv-x="420" 
d="M225 -8q-83 9 -116 84q-18 40 -45 169q-9 42 -15 119.5t-10 105.5q-5 36 -6 76t0 91t1 76q0 4 10 41q16 3 45.5 8.5t43.5 8.5q11 2 16 -1.5t3 -13.5q-11 -45 -2 -166l24 -321q3 -33 23 -121q0 -1 20 -35q19 7 23 33q4 28 6 59q9 142 5 244q-1 31 -1 276q0 8 2 18
q3 21 22 21h63q16 0 18 -17l-8 -2v-9q8 -315 8 -354v-7q0 -134 -29 -266q-12 -55 -41 -91q-20 -26 -52 -26h-8z" />
    <glyph glyph-name="V" unicode="V" horiz-adv-x="388" 
d="M159 -5q-23 -7 -26 19q-2 13 -6.5 58.5t-7.5 69.5q-8 60 -26 180q-6 44 -18.5 132t-18.5 132q-3 19 -5.5 40t-5 46.5t-4.5 39.5q-1 5 -1 17l27.5 11t34.5 13q21 7 26 -19q5 -30 15 -85t18 -100t15 -85q4 -21 9 -63t6 -46q2 -21 7 -38q1 9 2.5 26t2.5 25q2 17 5 49t5.5 58
t4.5 49q2 25 4 53t4.5 62t3.5 53v13q1 33 7 40t38 12q6 1 18 3.5t18 3.5l-1 -3q11 2 16 -2.5t2 -15.5q-7 -28 -11.5 -61.5t-5.5 -56t-1.5 -64t-1.5 -58.5q-4 -89 -29 -301l-18 -159l-3 -21q-2 -14 -16 -14h-3q-34 1 -80 -13z" />
    <glyph glyph-name="W" unicode="W" horiz-adv-x="554" 
d="M363 0q-16 -1 -21 2.5t-7 18.5q-10 70 -28 210l-24 189l-3 11h-6q-28 -123 -32 -161l-24 -231q-2 -22 -6.5 -26t-27.5 -6q-8 -1 -24 -2t-24 -2q-17 -1 -22 3t-6 20l-24 225l-39 357l-9 90q-1 16 3 21.5t20 7.5q18 2 54 4h3q16 0 16 -16q3 -20 8 -57.5t9 -68t7 -57.5
q2 -14 4 -39t4.5 -45.5t6.5 -39.5q3 4 5 11l15 126q1 3 1 8t1 7q4 21 10.5 26.5t28.5 6.5l81 3q19 1 26.5 -5t10.5 -24q18 -112 29 -168l4 18q2 32 5.5 95t5.5 95q1 22 3 46.5t5 54.5t4 46q2 15 15 18q9 2 26 6.5t25 6.5l-7 2q14 4 19.5 -0.5t4.5 -19.5q-2 -33 -9.5 -149.5
t-10.5 -192.5t-2 -151q0 -21 -8 -246q-1 -13 -5.5 -17t-18.5 -5z" />
    <glyph glyph-name="X" unicode="X" horiz-adv-x="541" 
d="M105 -33l-51 21q-21 9 -15 28q7 20 25 58q4 8 11.5 23.5t11.5 23.5l111 258q5 10 5 24q0 11 -3 18q-13 41 -36 119.5t-27 91.5q-6 21 -20 64t-20 65q-1 4 -2.5 11t-2.5 11q-7 22 14 35q22 14 33 20q16 9 22 -8l9 -24l90 -273l7 -15q43 88 45 93q54 116 80 175
q16 35 48 27q4 -1 12.5 -1h12.5q23 -3 16 -24q-18 -54 -29 -80q-22 -56 -48 -111q-58 -128 -89 -191q-6 -14 -6 -27q0 -10 4 -20q8 -26 23 -79.5t23 -80.5q14 -46 44 -138l-4 1l15 -45q6 -18 -11 -26l-22 -7q-30 -7 -40 -1.5t-18 30.5q-24 77 -74 231l-7 14q-20 -47 -22 -52
l-87 -219q-1 -4 -5 -12q-8 -15 -23 -8z" />
    <glyph glyph-name="Y" unicode="Y" horiz-adv-x="494" 
d="M237 -42q-12 -1 -15 2.5t-5 16.5q-5 41 -7 90t-1 90t0 90v78q0 11 -4 25q-76 222 -115 332q-8 21 -25.5 59t-20.5 46q-8 20 -4 27t25 12q39 8 47.5 3.5t26.5 -40.5q56 -114 115 -288q1 -4 5 -12h7q48 203 51 217q10 44 26 134q3 17 19 17q41 -2 61 -5l-2 3q15 -3 11 -24
l-24 -120q-33 -167 -72 -284q-11 -34 -25 -63q-9 -18 -9 -40v-3q6 -154 8 -231v-105q0 -21 -19 -22q-36 -4 -54 -5z" />
    <glyph glyph-name="Z" unicode="Z" 
d="M67 30q-15 -1 -19.5 3.5t-4.5 20.5q1 48 6 96q2 14 11 25q16 18 33 40.5t27 39t28 46t26 41.5q18 28 49.5 80.5t39.5 66.5q21 34 65 100l17 27q-16 2 -18 2q-78 -2 -116 -5q-12 -1 -36 -4.5t-36 -4.5h-18q-15 0 -33 2q-12 1 -16 5t-4 16q0 22 2 66q2 20 21 20
q15 0 44 0.5t43 0.5q40 0 60 1q118 4 177 5q15 0 18.5 -4.5t4.5 -20.5q4 -68 5 -102q-2 -11 -9 -20q-10 -14 -47.5 -64.5t-57.5 -78.5q-47 -65 -83 -123l7 -2q-18 -28 -49.5 -81.5t-36.5 -61.5l-2 -4l-2 -4l-2.5 -5l-2.5 -5q174 10 203 12q20 2 26 -3.5t6 -25.5t-2 -60
q-1 -12 -4.5 -16t-15.5 -5q-5 0 -21 1t-25 0q-56 -3 -168 -11q-10 -1 -28.5 -2.5t-33.5 -2.5t-28 -1z" />
    <glyph glyph-name="bracketleft" unicode="[" horiz-adv-x="331" 
d="M41 -162q-23 0 -29 7t-6 33l30 307q3 49 11.5 174.5t12 216t1.5 174.5q-4 41 5 50.5t51 9.5q45 5 146 5q23 0 31 -9.5t4 -35.5v-10q-4 -16 -9.5 -21t-20.5 -5q-35 -5 -101 -5q-15 0 -20 -5v-15q5 -72 -15 -231q-5 -41 -5 -126q-10 -121 -20 -373q0 -8 -2.5 -20.5
t-2.5 -19.5h20h116q15 0 20.5 -5t9.5 -21q15 -33 7.5 -50t-52.5 -20q-28 0 -81 -2.5t-81 -2.5h-20z" />
    <glyph glyph-name="backslash" unicode="\" horiz-adv-x="422" 
d="M335 -117q-22 -2 -29 4t-14 33q-74 257 -108 341q-10 21 -36 98q-31 109 -114 326q-11 30 -18 53q-14 54 35 59q24 3 36 -23q3 -7 12.5 -25.5t13.5 -29.5q47 -120 87 -229q19 -56 65 -188.5t71 -204.5q8 -20 56 -162q14 -45 -24 -48q-5 -1 -16.5 -2t-16.5 -2z" />
    <glyph glyph-name="bracketright" unicode="]" horiz-adv-x="341" 
d="M55 -172q-15 0 -20.5 5t-9.5 20q0 7 -2.5 22t-2.5 23q0 19 3 22t22 3q24 0 76 2.5t80 2.5q5 0 10 6v20v272q10 170 10 262q3 33 5.5 100t4.5 101q0 3 -2.5 8t-2.5 7h-95q-16 0 -43.5 -2.5t-42.5 -2.5q-11 0 -16 4t-9 16q-5 20 -5 51q0 14 11.5 24.5t23.5 10.5h76h151h20
q11 0 15.5 -4.5t4.5 -15.5q-5 -61 -5 -187q0 -54 -10 -166v-50v-499v-20q0 -14 -3.5 -17.5t-16.5 -7.5q-18 0 -52.5 -2.5t-48.5 -2.5q-81 0 -126 -5z" />
    <glyph glyph-name="underscore" unicode="_" horiz-adv-x="634" 
d="M47 -155q-15 -3 -25.5 12.5t-10.5 35.5q0 21 9 37.5t23 17.5q8 2 23.5 2t23.5 2q30 4 229.5 13t232.5 14q35 5 43 -2.5t15 -53.5q3 -21 -4.5 -36.5t-22.5 -16.5q-42 -4 -259.5 -12t-259.5 -12l2 -1h-19z" />
    <glyph glyph-name="a" unicode="a" horiz-adv-x="448" 
d="M323 -116q-21 0 -26.5 4.5t-8.5 24.5q-6 41 -9 81q-3 31 -7.5 92.5t-6.5 91.5l-15 195q0 4 -1 8.5t-2 11t-2 10.5l-31 -6q0 -4 -1.5 -12t-2.5 -12l-60 -386l-12 -74q-2 -13 -6.5 -16t-18.5 -2h-43q-19 -1 -24.5 4.5t-3.5 24.5q3 29 7.5 85.5t6.5 85.5l24 297
q3 31 6.5 93.5t6.5 93.5q6 63 15 126q4 25 11.5 32t33.5 9l102 9q25 2 34 -4.5t13 -30.5q11 -67 31 -201q23 -149 28 -193q6 -56 16 -158.5t13 -135.5q2 -19 17 -111v3q4 -22 -0.5 -28t-26.5 -8q-38 -4 -57 -4zM205 489q17 0 32 11q-7 27 -13 47q-1 5 -3.5 15.5t-5.5 18.5
t-8 16l-21 -104l1 -1q7 -3 18 -3z" />
    <glyph glyph-name="b" unicode="b" horiz-adv-x="455" 
d="M92 -122q-21 0 -30 7.5t-11 28.5q-5 33 -5 72q0 60 2 180t2 180q0 99 -2 297q0 31 -5 56q-4 25 20 36q88 40 169 11q9 -3 27 -11q73 -32 88 -120q2 -10 2 -18q0 -32 -20 -57q-25 -31 -56 -56q-13 -11 -41 -31t-34 -24q45 -10 61 -14q80 -22 128 -124q25 -53 27 -128l3 -1
q2 -67 -6 -95q-18 -61 -62 -91q-41 -30 -85 -51q-81 -39 -136 -45q-20 -2 -36 -2zM127 481q8 8 25.5 22.5t26.5 21.5q36 32 36 87q-1 33 -14.5 50t-45.5 23l1 1h-42l7 -202zM142 -31q5 0 11 2q97 50 132 151v1q24 70 -11 142q-13 27 -35 32q-70 15 -102 5z" />
    <glyph glyph-name="c" unicode="c" horiz-adv-x="411" 
d="M109 16q-19 15 -31 34q-29 46 -33 99q-3 38 -7 114q9 151 21 207q8 40 24 85q15 38 45 65q39 36 92.5 30t80.5 -49q18 -28 28 -93q3 -20 -18 -23q-2 0 -7 -1.5t-8 -2.5q-20 -4 -25.5 -1t-11.5 23q-7 25 -20 47q-11 21 -28 21.5t-29 -19.5q-29 -49 -39 -119
q-11 -77 -11 -152v-36q2 -37 11 -76q7 -24 23 -43q19 -24 45.5 -21.5t41.5 28.5q16 27 27 101q0 4 1 12t1 12q2 20 21 21q8 1 23 4l20 4q24 3 25 -19l-2 2q5 -135 -49 -215q-37 -55 -96.5 -66t-114.5 27z" />
    <glyph glyph-name="d" unicode="d" horiz-adv-x="462" 
d="M84 -42q-8 1 -12.5 6.5t-1.5 12.5t4 16t0.5 15t-1.5 16.5t-1 15.5l-9 189l-15 324q0 13 -1 38t-1 37q-1 12 -6 33q24 30 66 15q16 -6 48 -16q33 -11 73 -36.5t63 -51.5v1q33 -36 64.5 -95t43.5 -107q1 -2 7 -27t7.5 -32t5.5 -26t4.5 -33t-0.5 -28q-5 -102 -77 -156
q-114 -84 -244 -109q-8 -2 -14 -2h-3zM169 91q28 16 45 26l1 1q84 52 83 141q0 75 -18 145q-16 54 -56 94q-12 13 -27.5 23.5t-39.5 24t-34 19.5q19 -92 30 -262.5t16 -211.5z" />
    <glyph glyph-name="e" unicode="e" horiz-adv-x="380" 
d="M127 -68q-8 1 -21.5 1h-21.5q-18 2 -24 8t-5 24q2 32 0 129q-2 67 -5.5 202t-5.5 203q-1 25 -2.5 74t-1.5 73v55q9 1 24 3t26 3.5t21 1.5q64 0 192 -2q17 0 22 -4.5t7 -21.5l4 -6q1 -11 3.5 -32t3.5 -31q2 -14 -2.5 -19.5t-19.5 -6.5h-30t-30 -1q-15 -1 -44 -3.5
t-43 -3.5l-56 -4l14 -163h45l23 1q22 0 22 -1q12 -1 16.5 -5.5t5.5 -17.5l3 -45q2 -17 -4 -23.5t-25 -7.5l-75 -3v-278q26 -3 84 1q77 6 79 6q13 1 16.5 -2.5t4.5 -17.5q1 -10 1 -30.5t1 -30.5q2 -19 -16 -23q-8 -2 -15 -2q-16 0 -53 -2.5t-64.5 -2t-53.5 4.5z" />
    <glyph glyph-name="f" unicode="f" horiz-adv-x="379" 
d="M75 -117q-16 -2 -20 1.5t-4 20.5q1 0 1 53l-1 52v294q1 121 -10 316q-1 21 1 93l4 25q18 8 86 10q76 4 114 5q38 0 75 -3l-1 2q12 -1 15.5 -5t3.5 -16v-63q0 -13 -2.5 -16t-16.5 -5q-118 -17 -184 -12q-1 0 -7 -3l6 -155q61 6 84 8q20 1 24.5 -2.5t4.5 -23.5v-42
q0 -17 -6 -23.5t-22 -7.5q-10 -1 -30 -2.5t-30 -2.5l-11 -3q5 -45 5 -54q0 -164 -1 -246l-3 -165q0 -20 -5 -24.5t-25 -3.5h-15q-14 0 -30 -2z" />
    <glyph glyph-name="g" unicode="g" horiz-adv-x="548" 
d="M354 -183q-63 -22 -139 10q-40 16 -69 49q-23 23 -34 55q-38 119 -51 242q-16 143 -17 163q-7 121 9 214q12 75 36 124q23 47 65 69t94 13q48 -7 84 -38q67 -57 100 -119q31 -57 42 -118q2 -14 -1 -18t-17 -8l-66 -19l-6 12q-8 76 -53 148q-11 19 -32.5 39t-40.5 30
q-58 30 -89 -34q-14 -28 -22 -99q-10 -91 5 -245q3 -26 7 -52t10.5 -56t10.5 -49t13.5 -56t12.5 -50q12 -51 33 -72q11 -12 26 -20q35 -15 60 8q51 48 55 101l9 120q0 6 -2 14q-5 -1 -22 -4.5t-26 -4.5q-30 -5 -67 -7q-15 0 -19 5t-6 20q-1 11 -3.5 32t-3.5 31
q-2 17 3.5 23.5t22.5 6.5q30 0 68 14q78 26 120 23l3 -3q19 -2 25 -6.5t8 -22.5q23 -145 21 -226q-2 -80 -28 -133q-22 -43 -49 -61q-55 -36 -80 -45z" />
    <glyph glyph-name="h" unicode="h" horiz-adv-x="375" 
d="M70 -97q-7 -1 -10.5 3.5t-4.5 12.5q-2 24 -2 36q-1 60 -4 180t-4 180q-1 52 -4.5 155.5t-5.5 155.5v78q0 17 17 20l41 6q29 6 32 -24q5 -55 13 -165q2 -30 4 -83l43 -3v35q-2 96 -4 144q0 11 -1.5 33t-2.5 33q-1 20 6 28t27 10q21 1 63 1q17 0 24 -6t8 -23q3 -42 7 -126
q8 -168 11 -252q1 -10 1 -30t1 -30l-3 3q4 -102 10 -314q1 -37 -4.5 -44t-38.5 -9q-5 0 -20.5 -2t-24.5 -2q-16 0 -21 4.5t-6 20.5q-2 55 -5.5 165t-5.5 165q-1 24 -5 86l-42 -6v-20l12 -366q0 -3 -0.5 -10t-0.5 -11q0 -19 -16 -20q-42 -6 -84 -9z" />
    <glyph glyph-name="i" unicode="i" horiz-adv-x="242" 
d="M97 -77q-17 -1 -22 4t-5 22l-9 462q-1 36 -5 102t-5 87t0 42q0 20 -6 29q-12 16 9 25q10 3 25 5l75 12q25 4 26 -22q1 -23 5.5 -81t6.5 -99.5t0 -81.5q-1 -25 -1 -53t0.5 -59.5t0.5 -45.5l3 -1q4 -100 10 -278q1 -22 0 -45q-1 -17 -21 -19q-29 -1 -87 -5z" />
    <glyph glyph-name="j" unicode="j" horiz-adv-x="363" 
d="M162 -67q-28 14 -54.5 44t-36.5 59q-34 92 -32 213q0 17 4.5 21.5t22.5 6.5t33 7q19 6 25 2t8 -23q6 -68 12 -102q7 -38 18 -74q4 -9 9 -18q14 -22 28 -4q18 23 29 51q5 14 5 45q3 127 -7 276q-2 23 -2 67t-1 62q-1 16 -2.5 34.5t-3.5 41.5t-3 35q-2 15 10 19
q29 10 62 16q14 2 20 -3.5t8 -20.5q1 -6 1 -18v-226l7 -3v-189q-3 -91 -15 -179q-3 -21 -26 -83q-10 -27 -44 -52q-35 -25 -75 -5z" />
    <glyph glyph-name="k" unicode="k" horiz-adv-x="491" 
d="M160 -199q-52 0 -78 1q-19 1 -19 23l-6 414v84q-1 33 -5 100t-5 101l-9 240q-2 19 14 22q68 12 87 13q27 3 27 -23q0 -25 3 -76t3 -76t-3 -76q-2 -20 -2 -37q0 -14 2 -32q2 4 5.5 12t4.5 12l81 240q2 7 5 20t5 20q4 13 9 15.5t18 0.5q11 -1 33 -3.5t33 -4.5
q20 -3 23.5 -9.5t-3.5 -24.5q-8 -19 -21 -59t-20 -59q-62 -168 -95 -252q-12 -32 3 -56q63 -99 135 -303q10 -29 31 -82.5t27 -70.5l1 2q0 -1 2.5 -7t3.5 -10q8 -26 -19 -30q-2 0 -50 -6q-4 -1 -12 -2t-14.5 -2t-12.5 -2q-17 -3 -23 0t-10 18q-4 13 -19.5 66.5t-24.5 82.5
q-6 19 -75 211q-3 6 -9 14q-8 -29 -8 -82q0 -14 -0.5 -53.5t-1 -59t0 -51t2.5 -58.5t5 -53v-18v-18q0 -16 -16 -16h-3z" />
    <glyph glyph-name="l" unicode="l" horiz-adv-x="444" 
d="M90 -165q-25 -1 -32.5 6.5t-7.5 31.5q-6 390 -8 585q0 45 2 270v1v1q2 5 -0.5 13.5t-2.5 15t7 10.5q42 22 68 19q18 -3 18 -23q2 -48 2 -72q1 -33 2 -136.5t3 -160.5q1 -42 6 -126.5t7 -127.5v-147v-30l88 6l123 6q20 1 26 -4.5t8 -25.5l2 -2q1 -26 5 -78q2 -20 -3.5 -25
t-24.5 -4q-7 0 -24.5 2.5t-26.5 2.5q-62 0 -186 -2q-9 0 -26.5 -3t-24.5 -3z" />
    <glyph glyph-name="m" unicode="m" horiz-adv-x="450" 
d="M398 -126q-19 10 -55 4q-11 -1 -15 2.5t-4 15.5q-2 76 -2 114q-2 152 -2 228q0 13 0.5 28t1.5 33.5t1 29.5t-1 15l-4 1q-2 -9 -6.5 -26t-6.5 -25q-16 -66 -23 -99q-3 -16 -5 -39q-2 -12 -5.5 -15.5t-15.5 -3.5q-32 0 -48 1t-21 5.5t-7 20.5q-5 38 -13 114q0 11 -4 25
l-4 -11l-27 -228q-6 -50 -22 -148q-2 -12 -6 -15t-16 -3h-4q-11 0 -25 2q-14 3 -18 8t-3 19q1 22 5 66l24 267q2 24 8.5 72t8.5 72q12 120 21 240l3 102q0 24 8 31q14 -3 36 -5l39 3q14 2 18 -2t5 -17q8 -104 11 -156q2 -44 7 -131t7 -130q0 -8 2 -24l5 -1q1 5 3.5 14.5
t3.5 14.5l39 255q14 94 22 141q3 18 7 21.5t23 7.5t38 11q13 5 18 2t6 -16q3 -37 3 -75l1 -92q0 -91 -1 -91q0 -24 -3.5 -78.5t-3.5 -83.5q0 -100 4 -300v6q1 -54 5 -155v-4v-10q-2 -13 -13 -8z" />
    <glyph glyph-name="n" unicode="n" horiz-adv-x="487" 
d="M311 -118q-13 -4 -19 0t-10 17q-70 240 -106 360q-4 13 -38 113l-5 -1v-63q0 -24 0.5 -72t0.5 -72q0 -151 13 -249q2 -15 -3 -20.5t-21 -6.5q-15 -1 -79 -5q-3 8 -5 24q-1 36 -1 108l3 384l3 285q0 7 5 52q53 11 63 13q14 2 20 -2.5t10 -19.5q3 -14 11.5 -39t10.5 -33
l90 -312l78 -272q4 -16 14 -28v13q-1 36 -4 103t-5 121.5t-3 102.5l6 243l2 90q1 18 7.5 26.5t23.5 13.5q33 10 43 3.5t12 -39.5q2 -22 4 -132q1 -66 3.5 -199.5t3.5 -201.5q1 -25 0 -74t0 -73v5q1 -21 8 -126q2 -14 -1.5 -19t-16.5 -7q-12 -2 -21 -2q-7 0 -29.5 -1
t-38 -2.5t-29.5 -5.5z" />
    <glyph glyph-name="o" unicode="o" horiz-adv-x="374" 
d="M329 567q3 -151 2 -165q-9 -144 -24 -289q-4 -33 -27 -107q-15 -47 -65 -82q-24 -15 -51 -15q-18 0 -39 9.5t-32 23.5q-29 37 -33 82l-15 153q-1 17 -1 154h-5q0 100 1 120q4 106 12 158q10 68 57 100.5t119 19.5q19 -5 34 -20q32 -31 45 -74q1 -4 3 -13t3.5 -14t5 -12
t8.5 -12q2 -4 2 -17zM207 391q1 0 1 89l-1 88q0 25 -22 30q-23 5 -31 -20q-5 -12 -7 -27q-7 -96 -7 -123q0 -138 3 -276q1 -13 8 -81q2 -19 17 -22q3 6 5 14l-1 -1q2 10 7 30.5t8.5 36.5t4.5 31q10 116 15 231zM326 585l-1 2q1 -1 1 -2zM326 585l2 -2l-1 1q0 1 -1 1z" />
    <glyph glyph-name="p" unicode="p" horiz-adv-x="389" 
d="M82 -103q-41 2 -41 41q0 68 2 206q0 16 0.5 49t0.5 50q1 79 1 237q0 64 -2 192q-1 41 10 60l25 3l1 1q79 15 148 -15.5t106 -101.5q18 -36 18 -76q0 -11 -2 -25q-5 -37 -49 -70q-57 -44 -119 -40h-27q0 -6 -0.5 -15.5t-0.5 -13.5q0 -16 -0.5 -66.5t-1.5 -77.5
q-2 -34 -7 -96.5t-7 -86.5q-1 -20 -1.5 -60t-1.5 -60q-1 -24 -7.5 -30t-29.5 -5h-15zM144 507q17 -1 38 6.5t33 18.5q15 13 15 33q0 6 -2 14q-8 29 -32 48.5t-59 16.5z" />
    <glyph glyph-name="q" unicode="q" horiz-adv-x="492" 
d="M182 -106q-32 0 -54 22q-37 37 -51 85q-28 82 -32 154q-8 170 -1 255q12 139 48 238q17 48 44 75q20 19 42 16q102 -11 127 -89q4 -12 13.5 -40t14.5 -43.5t11 -39.5t9 -44q6 -48 6 -87q4 -103 -20 -259v-4v-4l101 -63v-6q17 -10 11 -28l-27 -72q-2 -7 -5 -11
q-10 -18 -27 -6q-29 20 -85 62q-12 10 -20 16q-5 -17 -15 -47q-11 -35 -38 -60q-22 -20 -52 -20zM179 50l17 37q-36 25 -10 75l6 12l3 -1q10 15 27 7l24 -10q2 16 2 18l3 234q1 28 -18 119q-6 20 -16 35q-14 24 -29 0q-7 -11 -11 -24q-14 -51 -16 -67q-19 -152 -23 -315
q-1 -36 18 -95q6 -21 23 -25z" />
    <glyph glyph-name="r" unicode="r" horiz-adv-x="457" 
d="M412 -42q11 -29 -16 -35q-29 -6 -76 -10q-14 -1 -21 15l-12 27l-114 246q-6 13 -17.5 39t-17.5 39l-8 -1q8 -120 8 -144q3 -104 3 -207q0 -13 -5 -17t-20 -4h-47q-8 23 -9 28q-3 26 -5 78l-9 204q-2 39 -2 117v94t-1 95q-1 22 -2 67t-2 68q0 8 2 24t2 24q-1 22 23 25
q15 3 36 3q114 -3 136 -5q32 -3 67.5 -23.5t54.5 -45.5q25 -32 27 -74q1 -30 -20 -58q-46 -59 -133 -82q-7 -2 -70 -22l68 -102q3 -4 14 -19.5t16 -24.5l-2 1q79 -126 152 -320zM124 520q29 2 31 3q49 19 92 39q10 5 14 17q6 19 -3 39.5t-26 30.5v2q-16 9 -35 13t-45 5
t-38 3z" />
    <glyph glyph-name="s" unicode="s" horiz-adv-x="567" 
d="M302 -62q-86 -23 -150 54q-26 32 -42 67q-33 67 -70 194q-4 17 -1 22.5t20 10.5q14 4 42 10q13 3 17 0.5t8 -15.5q1 -5 6.5 -27t10.5 -33q27 -65 52 -113q8 -16 34 -44q12 -10 25 -13q17 -4 24 0.5t10 21.5q8 48 -7 88q-1 3 -12 33.5t-18 45.5q-36 80 -46 188
q-4 46 -7 69q-10 79 50 160q27 36 69 45.5t78 -12.5q34 -21 60 -55q36 -46 70 -137l-1 2q4 -12 2.5 -17.5t-12.5 -12.5q-23 -16 -33 -14t-27 25q-50 69 -58 78q-15 15 -34 20q-25 8 -45 -2t-28 -36q-9 -25 -9 -52q0 -13 2 -29q16 -88 51 -175q18 -45 33 -111.5t18 -115.5
v-15q-2 -82 -82 -105z" />
    <glyph glyph-name="t" unicode="t" horiz-adv-x="403" 
d="M166 -22q-14 -1 -18.5 3t-3.5 18l6 141l18 366q0 3 5 61l-128 -15q-5 12 -5.5 45.5t4.5 52.5q30 -8 92 -4q58 3 174 11q6 1 17 2.5t16 1.5h2q20 2 20 -15q0 -40 -1 -60q-2 -18 -20 -20l-57 -3h-40q-2 -12 -2 -14q-1 -29 -3.5 -83t-4.5 -98t-4 -83q-2 -33 -7 -92.5
t-6 -78.5q-1 -18 -2 -53t-2 -52q-1 -13 -2.5 -18t-6 -6.5t-17.5 -2.5q-4 0 -12 -2t-12 -2z" />
    <glyph glyph-name="u" unicode="u" horiz-adv-x="398" 
d="M203 -55q-19 0 -36 11q-97 60 -112 160q-17 112 -15 336v207q0 25 7 31.5t32 7.5q5 0 11 0.5t13.5 1.5t11.5 1q24 1 28 -21q3 -21 5 -56q8 -242 13 -363q3 -67 9 -131q2 -19 13 -36q6 -10 15 -9.5t15 11.5q10 17 13 36q21 135 25 175q2 17 2 103q0 39 -0.5 117t-0.5 117
v21q0 16 17 18q25 5 56 7l1 5q14 1 19.5 -4.5t6.5 -19.5q14 -249 2 -383q-6 -75 -32 -218q-4 -25 -28 -69q-19 -35 -71 -53q-8 -3 -20 -3z" />
    <glyph glyph-name="v" unicode="v" horiz-adv-x="394" 
d="M143 -50q-13 0 -18 4.5t-6 19.5q-3 29 -8.5 88t-8.5 89l-24 237q-5 49 -17 147q-6 58 -10 87q-2 8 -5 14q-12 22 11 28q14 2 25 2q32 2 48 4q19 1 21 -16q2 -15 7 -52t9 -57q10 -50 16.5 -142.5t10.5 -120.5q0 -5 2 -15t2 -15q41 182 47 306q1 21 10 93q2 14 5.5 17
t19.5 5q33 7 52 12l-1 -1q16 4 20 0.5t2 -19.5q-4 -28 -12.5 -84t-12.5 -84q-8 -63 -24 -183t-23 -176q-7 -53 -23 -157q-3 -21 -8 -25t-26 -4q-27 0 -81 -2z" />
    <glyph glyph-name="w" unicode="w" horiz-adv-x="521" 
d="M462 722q20 -1 15 -21q-7 -27 -11 -55q-9 -85 -15 -169q-7 -92 -8 -165q-2 -74 -17 -190q-3 -24 -13 -144q-1 -5 -1 -14t-1 -13q-2 -27 -7.5 -32t-31.5 -3q-9 1 -27 1q-15 0 -20 4t-6 19q-2 15 -6.5 63.5t-7.5 74.5q-13 111 -41 333q0 5 -4 9q-3 -8 -5 -17
q-24 -141 -38 -401q-1 -10 -1 -31t-1 -32q-1 -13 -5.5 -17t-19.5 -3q-30 1 -60 0q-18 -1 -23 3t-6 21l-33 375q-4 48 -11.5 144t-11.5 144q-1 14 -3.5 42t-3.5 42q-1 19 17 20h48q18 0 21 -18q2 -10 2 -15l18 -177l15 -147q0 -7 4 -13l21 162q3 21 11 63q3 16 9.5 20.5
t23.5 1.5q13 -2 39 -4q15 -2 41 -4q20 -1 24 -22l24 -120l6 -30h4q1 14 3 40.5t3.5 48t2.5 40.5q1 26 2.5 78t2.5 78q0 10 1 14q5 22 21 15q17 -7 45 -1q8 2 15 2zM462 722h2h-2z" />
    <glyph glyph-name="x" unicode="x" horiz-adv-x="552" 
d="M366 -30q-13 0 -13 13q1 14 -16 64q-5 14 -57 163q-1 4 -6 11q-5 -4 -9 -9l-114 -183q-3 -4 -21 -38q-7 -14 -20 -11q-18 6 -54 16q-13 4 -15.5 9.5t3.5 16.5q23 42 71 126q70 124 104 186q2 6 2 12q0 5 -2 9l-78 240l-16 46q1 0 7 3t10 4q26 8 39 13q12 4 17 2t10 -15
l78 -182q4 -6 7 -12q11 15 13 18q90 135 109 165q22 35 58 29q3 0 8 -1t7 -1l2 -1q20 -4 23.5 -11t-6.5 -24l-124 -216l-35 -63q-5 -7 -5 -16q0 -7 2 -13q17 -48 50.5 -144t50.5 -144q2 -4 5 -11t5 -10q11 -26 -13 -32q-36 -7 -74 -9h-3z" />
    <glyph glyph-name="y" unicode="y" horiz-adv-x="402" 
d="M352 678q15 0 9 -20l-48 -174q-32 -110 -58 -162q-4 -12 -4 -23v-3l-15 -279v-5q-1 -36 -10 -43.5t-45 -2.5q-15 2 -16 13v18q0 198 1 297v4q0 29 -13 55q-16 31 -48 108l-60 144v3q-10 27 -5 36.5t35 13.5q25 4 38.5 -4.5t22.5 -30.5q7 -15 66 -142l9 -18h6l27 87
q4 11 10.5 32t12 38t10.5 32q7 16 17 17q32 6 58 6v3z" />
    <glyph glyph-name="z" unicode="z" horiz-adv-x="509" 
d="M222 -14q-7 -1 -20.5 0.5t-18.5 1.5q-19 0 -56 -0.5t-55 -0.5q-19 0 -25.5 6t-6.5 24q0 31 4 93q2 8 7 13q19 28 57.5 83.5t57.5 83.5q20 31 60.5 92t61.5 92q7 11 39 54q-6 2 -11 2q-23 -2 -68 -6.5t-67 -6.5q-19 -1 -24 3.5t-5 22.5q0 60 1 72q1 6 11 35h272
q17 0 21 -3t6 -18l1 -3q5 -35 7 -80q0 -10 -8 -20q-17 -16 -35 -37t-26.5 -32.5t-31 -43.5t-25.5 -37q-26 -36 -186 -269l-4 -11q73 0 149 13q43 7 87 9q15 1 20 -4t4 -20l-6 -78q0 -16 -16 -16q-114 -10 -171 -14z" />
    <glyph glyph-name="endash" unicode="&#x2013;" horiz-adv-x="585" 
d="M32 263l-6 93h25q53 0 81 -2t82 -3q57 0 100 1t96 3t99 3q2 0 7 -0.5t9 0.5q1 -11 2.5 -28.5t1.5 -23.5q2 -22 -1.5 -27t-21.5 -6q-78 -3 -116 -4q-62 -1 -114 -3t-121 -3q-52 -1 -102 0h-5h-8h-8z" />
    <glyph glyph-name="emdash" unicode="&#x2014;" horiz-adv-x="788" 
d="M32 263l-6 93h25q53 0 81 -2t82 -3q123 0 504 9q2 0 7 -0.5t9 0.5q1 -11 2.5 -28.5t1.5 -23.5q2 -22 -1.5 -27t-21.5 -6q-78 -3 -116 -4q-44 -1 -206.5 -4t-237.5 -4q-52 -1 -102 0h-5h-8h-8z" />
    <glyph glyph-name="quoteleft" unicode="&#x2018;" horiz-adv-x="156" 
d="M98 582q-7 0 -12 3.5t-8.5 10.5t-5.5 12.5t-5 15.5t-4 14q-2 5 -12 39t-17.5 53t-16.5 28q-5 7 -5 11q0 6 23 19.5t36 13.5q7 0 21 -41.5t28.5 -92t20.5 -61.5q2 -6 2 -9q0 -7 -6.5 -10t-21.5 -4.5t-17 -1.5z" />
    <glyph glyph-name="quoteright" unicode="&#x2019;" horiz-adv-x="133" 
d="M61 585q-43 0 -43 11v3q22 110 32 165v6v15q0 20 20 20h6q3 0 10.5 0.5t12 0t10 -1t8 -3t2.5 -6.5q0 -8 -1.5 -17.5t-4.5 -21t-4 -17.5q-18 -103 -28 -138q-4 -17 -20 -16z" />
    <glyph glyph-name="quotedblleft" unicode="&#x201c;" horiz-adv-x="277" 
d="M205 582q-7 0 -12 3.5t-8.5 10.5t-5.5 12.5t-5 15.5t-4 14q-2 5 -12 39t-17.5 53t-16.5 28q-5 7 -5 11q0 6 23 19.5t36 13.5q7 0 21 -41.5t28.5 -92t20.5 -61.5q2 -6 2 -9q0 -7 -6.5 -10t-21.5 -4.5t-17 -1.5zM75 570q-12 0 -15 12q-16 51 -46 153q-1 4 -3.5 10t-4 10
t-1.5 7q0 17 41 17q6 1 14 1q5 0 10 -8.5t10 -23t9 -28.5t8 -31t6 -23q2 -8 9 -26t11.5 -32t4.5 -21q0 -17 -53 -17z" />
    <glyph glyph-name="quotedblright" unicode="&#x201d;" horiz-adv-x="258" 
d="M50 585q-32 0 -32 11v7q30 150 32 161v6v15q0 20 20 20h6q3 0 10.5 0.5t12 0t10 -1t8 -3t2.5 -6.5q0 -8 -1.5 -17.5t-4.5 -21t-4 -17.5q-18 -103 -28 -138q-4 -16 -20 -16h-11zM182 555q-9 2 -29 4q-13 1 -11 12q2 10 6 27.5t7 32t5 27.5q5 32 16 112q1 12 5.5 16t18.5 6
l18 3q23 0 19 -21q-10 -56 -14 -84q-10 -72 -14 -116q-3 -22 -27 -19z" />
    <glyph glyph-name="bullet" unicode="&#x2022;" horiz-adv-x="295" 
d="M133 250q-42 -16 -75 4.5t-28 59.5q8 52 52 84q32 24 75 12q42 -14 48 -51q6 -33 -14.5 -64t-57.5 -45z" />
    <glyph glyph-name="NULL" horiz-adv-x="0" 
 />
    <glyph glyph-name="CR" horiz-adv-x="297" 
 />
    <glyph glyph-name="A.ss01" horiz-adv-x="368" 
d="M53 -53q-19 0 -26 5.5t-7 21.5q0 18 5 54t5 41q11 127 28.5 363t21.5 291q9 119 35 123l33 6t39.5 6.5t32.5 2.5q20 0 24 -24q16 -92 30.5 -202.5t23.5 -190t23 -207.5t21 -193q0 -6 3 -17t3 -16q0 -1 0.5 -4.5t0.5 -4.5q0 -28 -81 -28q-15 0 -20 6.5t-7 26.5
q-4 55 -18 158.5t-17 130.5q-22 187 -25 204l-22 -5q-28 -369 -41 -512q-2 -23 -13 -28t-52 -8zM154 595l40 3l-22 85q-3 0 -5.5 -7t-4.5 -18.5t-3.5 -22t-2.5 -23.5t-2 -17z" />
    <glyph glyph-name="B.ss01" horiz-adv-x="600" 
d="M82 -11q-14 0 -22 1.5t-11.5 6.5t-4 9t-0.5 14v735q0 63 11 69q28 13 70 23q40 8 71 8q27 0 48 -4q67 -12 104.5 -55.5t37.5 -108.5q0 -86 -61 -133q-15 -12 -51 -31t-47 -28q105 0 151 -55q30 -36 50 -97t20 -113q0 -62 -42.5 -115.5t-102.5 -78.5q-81 -32 -146 -41
q-42 -6 -75 -6zM129 539q79 45 112 81q32 35 32 74q0 16 -5 30q-16 48 -68 48q-2 0 -70 -10zM143 97q39 4 81.5 23t65.5 39q16 13 26 39.5t10 50.5q0 41 -27 87q-14 23 -30.5 33.5t-48.5 10.5q-39 0 -77 -16v-267z" />
    <glyph glyph-name="C.ss01" horiz-adv-x="329" 
d="M179 18q-50 0 -87.5 49t-55 117t-17.5 139q0 28 2 43q7 77 26 257q6 59 36 105t86 46q36 0 62.5 -20t38.5 -53t17.5 -64t5.5 -63v-8.5v-9.5v-9t-0.5 -9.5t-1.5 -8.5t-2.5 -7.5t-3.5 -5.5t-5 -4t-7 -1q-24 0 -33 1t-14 9.5t-5 19t-4 37.5t-12 57q-8 24 -22 45t-27 21
q-22 0 -34 -70q-18 -118 -18 -218q0 -231 70 -231q7 0 13.5 3t11 10.5t8 14t6.5 19t4.5 20.5t3 22.5t2.5 21t2 21.5t1 18q1 16 12.5 23.5t41.5 7.5q23 0 23 -25v-64q0 -119 -31 -187.5t-93 -68.5z" />
    <glyph glyph-name="D.ss01" horiz-adv-x="349" 
d="M57 12q-22 0 -22 52q0 51 0.5 151.5t0.5 151.5v76q0 34 -7.5 105t-7.5 108t4 66q20 4 43 4q94 0 157.5 -83t82.5 -192q8 -56 8 -105q0 -59 -10 -113q-2 -14 -9 -28.5t-12 -23t-17 -26.5l-16 -24q-29 -45 -93 -78q-79 -41 -102 -41zM121 139q93 108 93 212q0 76 -27 150
t-85 106q16 -226 16 -334q0 -43 -4 -131z" />
    <glyph glyph-name="E.ss01" horiz-adv-x="356" 
d="M56 30q-24 0 -30 7.5t-6 35.5q0 95 -1.5 286t-1.5 287q0 88 8 130h309q0 -11 2 -43t2 -50q0 -22 -21 -22q-126 -4 -196 -7v-171q18 1 53 5t55 4q5 0 8.5 -2.5t6 -7.5t3.5 -9.5t1.5 -13t0.5 -13v-13.5v-12v-19q-1 -12 -22 -16t-45.5 -2t-45.5 -1v-217q6 -2 13 -2l123 -3
q16 -1 19 -4.5t3 -20.5q0 -68 -4 -103q-57 -3 -234 -3z" />
    <glyph glyph-name="F.ss01" horiz-adv-x="333" 
d="M102 -79q-3 0 -15 1t-19 1h-22q-19 1 -24.5 6.5t-5.5 24.5q1 44 7 183t7 214q2 85 1 153.5t0.5 154t6.5 152.5q6 0 14 -1.5t12 -1.5q32 1 97 4.5t98 4.5h12q21 0 27 -5t6 -23v-35q1 -47 -3 -59.5t-24 -14.5q-24 -3 -51 -5.5t-60.5 -5t-51.5 -4.5v-161q10 0 35.5 2.5
t39.5 2.5q8 0 13 -4t7 -14.5t2.5 -18t0.5 -24.5v-8q0 -8 -2.5 -14t-7.5 -9.5t-10.5 -5.5t-14.5 -2.5t-15.5 -0.5t-17 0.5t-16.5 0.5q-2 -10 -2 -16q2 -62 2 -92q0 -37 -3 -111.5t-3 -110.5q0 -20 0.5 -60t0.5 -59q0 -24 -3.5 -31.5t-17.5 -7.5z" />
    <glyph glyph-name="G.ss01" horiz-adv-x="468" 
d="M299 -41q-126 0 -186 97q-103 166 -103 417q0 391 158 391q51 0 90.5 -20.5t65.5 -60t41.5 -75.5t30.5 -88q3 -11 3 -17t-2.5 -10t-8 -6.5t-11 -4.5t-14.5 -3t-15.5 -1t-17.5 -1t-17 -1q-2 6 -10.5 36.5t-15.5 50.5t-19.5 45.5t-29.5 39t-37 13.5q-27 0 -45 -56
t-23 -113.5t-5 -110.5q0 -119 25 -231q12 -59 46 -113t73 -54q17 0 28.5 11t17.5 34.5t9 41.5t5.5 52t4.5 46q-11 -4 -33.5 -13t-39 -13.5t-31.5 -4.5q-17 0 -28.5 41t-11.5 78q0 8 5 13.5t16 9.5t20.5 6.5t25 6t23.5 5.5q10 3 35.5 11t45 13t33.5 5q20 0 27 -27
q22 -87 22 -186q0 -133 -33.5 -193.5t-113.5 -60.5z" />
    <glyph glyph-name="H.ss01" horiz-adv-x="401" 
d="M64 -52q-19 0 -23.5 4.5t-4.5 23.5t0.5 57t0.5 57q0 74 -6 222t-6 222q0 88 3 175q0 5 -2 14t-2 13q0 9 10 14t22.5 6t29.5 4t27 7q2 1 7 1q15 0 18 -22q15 -133 15 -159q0 -8 -0.5 -25.5t-0.5 -27.5h74v232q0 17 6 22t24 6q5 0 22 2t25 2q24 0 39 -104t15 -182
q0 -16 -1 -49t-1 -50q0 -230 11 -361q4 -30 4 -48q0 -26 -23.5 -35.5t-90.5 -9.5q-14 0 -19.5 5.5t-5.5 19.5q-2 69 -4.5 206t-4.5 205q0 3 -2 19q-4 0 -15.5 0.5t-20 0.5t-18 -0.5t-15 -3.5t-5.5 -8q2 -43 9 -131t10.5 -157.5t3.5 -131.5q0 -15 -5.5 -20.5t-20.5 -7.5
q-6 0 -35 -3.5t-44 -3.5z" />
    <glyph glyph-name="I.ss01" horiz-adv-x="212" 
d="M69 -17q-10 0 -13.5 4.5t-3.5 17.5q0 152 -7 364q-1 28 -6.5 122t-5.5 146v95q-2 1 -7.5 3t-8 3.5t-4.5 4t-2 6.5q0 16 25.5 25.5t50.5 9.5q4 0 11.5 -0.5t11.5 -0.5q7 0 23.5 4.5t22.5 4.5q23 0 23 -78q0 -32 -3.5 -96t-3.5 -97q0 -234 4 -350q1 -22 5.5 -78t4.5 -87
q0 -10 -5 -15.5t-17.5 -7t-23 -2t-34 0.5t-37.5 1z" />
    <glyph glyph-name="J.ss01" horiz-adv-x="337" 
d="M191 25q-25 0 -65 16q-101 41 -111 316q0 21 9.5 25t43.5 4h9q15 0 21 -5.5t8 -21.5q1 -11 3.5 -36t4.5 -43t5.5 -42t8 -40.5t11 -32.5t15.5 -24t20 -8q19 0 27.5 41.5t8.5 84.5q0 7 -0.5 19t-0.5 18v15q0 35 -14 154q-3 26 -5.5 55.5t-5 65.5t-4.5 56q-1 9 -7.5 58
t-6.5 75q0 23 26 30q8 2 24 7.5t29.5 9.5t22.5 4q16 0 19 -21q14 -140 14 -211q0 -12 -1 -35t-1 -34q0 -20 11 -196q3 -75 3 -76q0 -44 -9.5 -92t-39 -92t-73.5 -44z" />
    <glyph glyph-name="K.ss01" horiz-adv-x="401" 
d="M51 -121q-23 0 -23 51q-4 288 -4 433q0 38 -0.5 112t-0.5 119.5t1 109t4 116.5q1 12 5 20.5t8 13.5t15 8t16.5 3.5t23 2t25.5 2.5q4 0 6.5 -1t4.5 -2.5t3.5 -3.5t2.5 -5.5t1.5 -5.5t0.5 -6.5v-7v-7v-6.5q0 -159 1 -238q0 -14 5 -25q22 76 64 230q2 6 5 22.5t6 24t10 15.5
t18 8q29 0 70 16q6 2 11 2q17 0 17 -17q0 -5 -2 -9q-35 -125 -146 -484q-1 -3 -1 -8q0 -12 7 -24q111 -228 147 -370q1 -7 9 -28t8 -31q0 -9 -6 -15t-14 -6q-6 0 -23 5t-27 5h-35q-12 0 -16 4t-10 21q-13 36 -38.5 101t-34.5 89q-21 58 -29 75q5 -51 12.5 -146t10.5 -126
q0 -14 -8.5 -22t-29.5 -11t-31.5 -3.5t-38.5 -0.5z" />
    <glyph glyph-name="L.ss01" horiz-adv-x="391" 
d="M90 -94q-20 0 -25.5 6t-6.5 26q-1 47 -3 175t-5.5 219t-11.5 176q-19 202 -19 257q0 5 0.5 16t0.5 17q0 9 -0.5 27t-0.5 27q0 15 28.5 27.5t50.5 12.5q18 0 21 -27q9 -75 12.5 -152.5t5.5 -194t3 -153.5q1 -28 4.5 -79t5.5 -92.5t2 -78.5v-62q0 -1 -0.5 -7t0 -9t3 -6
t7.5 -3h2l2 1q21 6 42.5 8.5t53 3t42.5 1.5q6 0 19 1.5t20 1.5q17 0 18 -16q0 -15 4.5 -49t4.5 -51q0 -13 -3 -17.5t-14 -4.5q-16 0 -48.5 2t-48.5 2q-28 0 -83 -2.5t-83 -2.5z" />
    <glyph glyph-name="M.ss01" horiz-adv-x="576" 
d="M466 -186q-15 0 -17 21q-5 75 -9.5 239.5t-6.5 210.5q0 3 0.5 9.5t0.5 12t-0.5 11.5t-2 9t-4.5 3q-14 -54 -56 -243q-4 -16 -8 -20.5t-16 -4.5q-15 0 -45 1.5t-46 1.5q-21 0 -22 20q-2 17 -8.5 128.5t-19.5 166.5q-4 -12 -5 -19q-9 -56 -20.5 -130.5t-21 -135.5
t-19.5 -130q-1 -6 -2.5 -19.5t-3 -22t-4 -18.5t-8.5 -15t-14 -5t-23.5 1t-23.5 1q-7 0 -20 -5t-16 -5q-9 0 -9 14q1 6 5 23q28 160 81 518q5 34 17 129t23 161t26 127q11 1 42 5.5t46 4.5q9 0 12 -5t5 -20q27 -280 42 -553l8 16q50 292 101 532q4 23 26 26q7 1 25.5 5.5
t29.5 4.5q16 0 17 -22q1 -50 5.5 -153t6.5 -154q1 -29 1.5 -102.5t2.5 -113.5q1 -27 7.5 -139.5t6.5 -171.5q0 -11 -0.5 -29.5t-0.5 -29.5q0 -50 6 -104q0 -2 0.5 -5t0.5 -4q0 -23 -92 -23z" />
    <glyph glyph-name="N.ss01" horiz-adv-x="508" 
d="M324 -53q-20 32 -39.5 69t-32.5 65.5t-31 73.5t-26.5 67.5t-28 75t-25.5 69.5q2 -60 9 -171t9 -159q0 -5 2 -25t2 -31q0 -26 -21 -26q-4 0 -12 0.5t-12 0.5q-13 0 -37 -4t-36 -4q-31 0 -31 27q0 26 2 80q9 207 9 279t-5.5 217.5t-5.5 218.5q0 25 5 49q12 -3 22 -3
q11 0 31.5 5.5t27.5 5.5q10 0 17 -18q10 -28 83 -236t114 -318q2 -6 17 -53.5t27 -65.5q0 2 0.5 4.5t0.5 3.5q-1 25 -8.5 214.5t-7.5 288.5q0 23 1 68t1 67q0 49 32 49q3 0 11 -0.5t11 -0.5q7 0 23 2q33 0 40 -173q0 -10 15 -374q0 -18 1.5 -53.5t1.5 -52.5q0 -21 1 -70.5
t0.5 -85.5t-3.5 -69q-103 -4 -154 -7z" />
    <glyph glyph-name="O.ss01" horiz-adv-x="356" 
d="M149 -4q-92 0 -109 129q-16 116 -16 331q0 161 16 248q24 134 120 134q62 0 95 -18.5t46 -64.5q2 -5 4.5 -14t5 -16.5t5.5 -14.5q6 -16 9.5 -33t5.5 -37.5t2.5 -33.5t1 -39.5t0.5 -37.5q-1 -23 -4 -91t-7 -117.5t-12 -95.5q-6 -33 -12 -56.5t-19.5 -58.5t-29.5 -57.5
t-42.5 -39.5t-59.5 -17zM163 133q24 100 25 113q20 179 20 376q0 24 -1 39t-10.5 32t-27.5 17q-41 0 -41 -146q0 -160 5 -362q0 -56 17 -66q6 -3 13 -3z" />
    <glyph glyph-name="P.ss01" horiz-adv-x="331" 
d="M112 -31h-22.5t-18.5 2.5t-18.5 7t-10.5 14.5t-5 24q-12 374 -15 748q0 6 3 45q6 2 14 5t14 5t8 2q46 6 69 6q70 0 125 -43t55 -124q0 -35 -16 -55q-57 -76 -141 -82q-27 0 -27 -16q7 -108 7 -280v-168q0 -11 1 -31.5t1 -30.5q0 -17 -4.5 -23t-18.5 -6zM115 604
q38 5 61 24q25 21 25 58q0 29 -14 45t-30.5 21t-54.5 12q1 -14 2 -40.5t1.5 -42t3 -37.5t6.5 -40z" />
    <glyph glyph-name="Q.ss01" horiz-adv-x="429" 
d="M173 -51q-32 0 -57.5 16.5t-42 41t-28.5 64t-17.5 72.5t-9 80t-4 74t-0.5 66q0 135 21 293q7 52 26.5 102t57.5 89t86 39q14 0 38 -12q88 -45 111 -129q26 -96 26 -193q0 -135 -6 -202q-3 -29 -9.5 -62t-11 -53t-16 -63t-15.5 -58l72 -52q16 -13 16 -22l-4 -8
q-4 -9 -10.5 -22.5t-14 -26.5t-16.5 -22.5t-15 -9.5q-4 0 -9.5 2t-12.5 6.5t-13 9t-14.5 12t-14 12t-14.5 12.5t-13 11q-18 -26 -26.5 -36t-24.5 -20.5t-35 -10.5zM166 70l21 34q-41 52 -41 64q0 6 4.5 15t12 20.5t10.5 17.5q9 17 18 17q3 0 7.5 -2t10 -6t10.5 -8l12.5 -10
l12.5 -10q36 163 36 322q0 65 -18 125t-55 60q-22 -2 -35 -22q-65 -92 -65 -296q0 -89 12 -206q11 -104 47 -115z" />
    <glyph glyph-name="R.ss01" horiz-adv-x="399" 
d="M276 -20q-11 0 -18.5 6.5t-10.5 13t-8 22.5q-62 182 -115 323q-1 3 -7 7q1 -6 1 -14q20 -236 20 -316q-2 -18 -43 -18h-5q-8 0 -14 1t-10 2.5t-7 5.5t-5 6.5t-3 10t-1.5 10.5t-1.5 14t-1 16q-2 63 -9 223.5t-11 276.5t-5 225q0 7 2 15q102 23 141 23q78 0 132 -43
t54 -107q0 -75 -69 -118q-20 -12 -40.5 -21t-51.5 -19.5t-43 -14.5q24 -50 73 -149t73 -148q4 -7 78 -182q7 -19 7 -27t-7 -13t-20 -7t-24 -2.5t-27.5 -1t-23.5 -0.5zM106 592q53 8 92.5 32.5t39.5 64.5q0 22 -16 46q-21 29 -62 29q-18 0 -68 -4q2 -27 6.5 -83t7.5 -85z" />
    <glyph glyph-name="S.ss01" horiz-adv-x="522" 
d="M249 13q-30 0 -57 10.5t-46 24.5t-37.5 41t-29.5 47.5t-24.5 56.5t-19 54.5l-16.5 55.5q-2 5 -2 13q0 10 28 24t42 14q8 0 12 -19q43 -218 137 -218q6 0 9.5 4t5.5 12t3 14.5t1.5 17t1.5 15.5q0 41 -20 101q-4 12 -18.5 53t-21 60.5t-15.5 53t-13 61t-4 54.5
q0 89 36.5 146t108.5 57q45 0 82 -26.5t56 -74.5q27 -69 57 -157q3 -7 3 -13q0 -24 -55 -24q-13 0 -29.5 28.5t-31.5 62t-41.5 62t-56.5 28.5q-19 0 -28 -16.5t-9 -55.5q0 -59 17 -107q3 -9 18 -53t19.5 -59t15.5 -53t15 -60t8 -53.5t4 -58.5q0 -59 -28 -91t-77 -32z" />
    <glyph glyph-name="T.ss01" horiz-adv-x="356" 
d="M113 51q-13 0 -13 21q0 1 3 70q1 37 2.5 118t2.5 127.5t5 115.5t10 128q-10 -1 -49 -7t-59 -6q-12 0 -12 13q0 80 26 80h22q40 0 118.5 8.5t117.5 8.5q4 0 12 -0.5t12 -0.5q15 0 18 -7.5t3 -37.5q0 -38 -6 -43q-4 -5 -16 -5q-11 -1 -51.5 -1t-61.5 -3q-4 -22 -4 -26
l-27 -502q0 -51 -53 -51z" />
    <glyph glyph-name="U.ss01" horiz-adv-x="372" 
d="M177 29q-18 0 -37 8q0 1 -2 1q-109 39 -115 161q-9 180 -9 241q0 5 1 37t1.5 83t0.5 102v83q0 28 78 28q13 0 18.5 -5.5t7.5 -19.5q6 -72 6 -108q0 -37 -0.5 -109t-0.5 -108v-12q-1 -12 -1 -26.5v-35.5t1 -42t2.5 -43.5t4.5 -41.5t7.5 -34.5t11.5 -24t15 -8.5q34 0 41 64
q24 212 25 241q3 55 4 159t1 123q0 21 3.5 25.5t22.5 8.5q48 12 50 12q14 0 17 -22q9 -108 9 -257v-4q0 -24 -0.5 -45.5t-3.5 -73.5t-8.5 -94t-17.5 -93.5t-28.5 -86.5t-43.5 -59t-61 -24z" />
    <glyph glyph-name="V.ss01" horiz-adv-x="347" 
d="M119 23q-12 0 -15.5 5.5t-5.5 22.5q-4 36 -10 107t-9 106q-8 79 -28 228.5t-23 171.5q-2 11 -2 31.5t-1 29.5q-1 7 -5 19.5t-4 16.5t2.5 6.5t8.5 4.5t11.5 3.5t14.5 2.5l13.5 1.5t14 1.5t11.5 1t6 -5.5t5 -9.5q6 -40 21.5 -138t26 -171t18.5 -142q1 0 3 0.5t3 0.5
q5 43 23.5 196.5t26.5 238.5q1 12 2 17.5t6.5 9t11 4t20.5 3.5t30 7q2 0 4.5 0.5t3.5 0.5q15 0 15 -16v-7q-52 -478 -80 -716q-2 -19 -6 -22.5t-25 -4.5q-11 0 -41.5 -2.5t-46.5 -2.5z" />
    <glyph glyph-name="W.ss01" horiz-adv-x="464" 
d="M276 -10q-23 0 -26 103q-2 63 -17.5 177.5t-19.5 153.5q0 1 -2 9q-3 -1 -8 -1q-25 -152 -57 -403q-2 -18 -7 -22t-22 -5q-8 -1 -32 -4.5t-37 -3.5q-5 0 -8.5 2t-5.5 6t-3 8.5t-1 11.5v12.5v13.5v13q0 61 1.5 182.5t1.5 181.5q0 78 -9 310q0 5 -3.5 15.5t-3.5 14.5
q0 5 6 9t19 6.5t21 4t25 3t19 1.5q19 0 20 -16q0 -215 2 -323q21 77 33 143q1 6 4.5 10.5t9.5 7t12 4t15 1.5t15 0.5t16 0t14 -0.5q34 0 49 -165q1 -9 1 -12q10 19 14 50q7 59 20.5 168t15.5 124q2 20 18.5 25.5t51.5 5.5q10 0 13.5 -3.5t3.5 -12.5q-4 -45 -38 -372
q-9 -86 -28 -399q-1 -18 -6.5 -22.5t-22.5 -5.5q-10 0 -31.5 -3.5t-32.5 -3.5z" />
    <glyph glyph-name="X.ss01" horiz-adv-x="485" 
d="M89 -42q-13 0 -46 9.5t-33 19.5q0 2 4 14q95 262 162 398q4 12 4 18q0 4 -2 12q-23 82 -94 340q-4 12 -4 20t31 25.5t52 17.5q10 0 25.5 -48t34.5 -122.5t23 -87.5q10 11 12 17q36 81 82 187q5 11 10.5 24t7.5 18t7 10.5t11.5 7t17.5 1.5q23 0 51 -5q23 -3 23 -18
q0 -6 -3 -14q-44 -129 -164 -414q-3 -8 -3 -14q0 -5 2 -11q39 -156 88 -321q2 -6 6 -16t7 -18.5t3 -14.5q0 -12 -28.5 -22.5t-51.5 -10.5q-28 0 -55 105q0 2 -2 7l-1 6q-4 15 -10.5 47t-13.5 57.5t-15 45.5q-9 -21 -25 -53q-6 -12 -34.5 -76.5t-49 -102.5t-29.5 -38z" />
    <glyph glyph-name="Y.ss01" horiz-adv-x="349" 
d="M140 -36q-6 0 -11 3t-7.5 9.5t-4.5 12t-2.5 16t-0.5 16v17v14.5q0 65 -0.5 193.5t-0.5 193.5q0 13 -3 25q-26 107 -58 243q-3 12 -11.5 42.5t-13 52t-4.5 40.5q0 7 5 11t15.5 5.5t18.5 1.5t21.5 -0.5t17.5 -0.5q18 0 31.5 -37.5t25.5 -97t17 -75.5q3 0 11 38.5t17 91
t10 55.5q1 9 6.5 14.5t16.5 7.5t17.5 2.5t22 0t18.5 -0.5h14q17 0 17 -16v-6q-10 -110 -72 -311q-32 -101 -32 -124q0 -33 -0.5 -100t-0.5 -101q0 -33 0.5 -99.5t0.5 -100.5q0 -6 -0.5 -11t-1.5 -9t-3 -6.5t-4 -4.5t-6.5 -3t-8 -1.5t-11 -0.5h-12.5h-15.5h-18.5z" />
    <glyph glyph-name="Z.ss01" horiz-adv-x="451" 
d="M63 30q-27 0 -39.5 7t-12.5 24q0 98 14 116q50 64 129.5 198.5t127.5 196.5q6 7 25 39q-16 4 -19 4q-16 0 -68.5 -2t-81.5 -2q-14 0 -18.5 4.5t-4.5 18.5v27q-1 40 2.5 51t21.5 12q142 5 172 5q15 0 46 -0.5t46 -0.5q17 0 22 -4t7 -20q1 -13 4 -82q0 -10 -6 -17
q-65 -79 -155 -245q-41 -80 -126 -198q-2 -3 -10 -17q29 7 88.5 8.5t88.5 10.5q7 2 15.5 3t19 1.5t16.5 1.5q17 0 17 -17q0 -95 -5 -108q-6 -14 -29 -14q-48 0 -144 -0.5t-143 -0.5z" />
    <glyph glyph-name="b.alt" horiz-adv-x="441" 
d="M39 -10q-15 0 -20 6t-5 23q0 75 8.5 225t8.5 226q0 46 -4.5 136t-4.5 136q0 73 4 97q92 33 138 33q73 0 122 -41.5t49 -112.5q0 -49 -30.5 -88.5t-85.5 -83.5q37 -4 46 -6q58 -14 99.5 -71t46.5 -119q4 -50 4 -75q0 -145 -101 -200q-91 -50 -154 -64q-7 -1 -36.5 -8
t-48 -10t-36.5 -3zM102 572q9 2 11 4q109 70 109 134q0 31 -19 59.5t-46 28.5q-5 0 -15 -2q-15 -4 -47 -14q1 -34 3.5 -104t3.5 -106zM104 93q81 20 116 50q84 74 84 189q0 97 -110 97q-34 0 -54.5 -10t-20.5 -27v-45q0 -38 -2 -77t-6.5 -95.5t-6.5 -81.5z" />
    </font>
</defs>
</svg>
